<svg baseprofile="tiny" fill="orange" height="1000" stroke="#ffffff" stroke-linecap="round" stroke-linejoin="round" stroke-width=".5" version="1.2" viewbox="0 0 1000 1000" width="1000" xmlns="http://www.w3.org/2000/svg">
<path d="M802.5 941.1l-0.2 0.4 0.3 0.4 0.5-0.1 0.4 0.8-0.1 0.3 0.2 0.7 0.1 0.8-0.1 1 0.4 0.2 0.4 0.8 0.1 1.1-0.2 0.3 0.4 0.4 0.2 0.6-0.5 0.5-0.2 0.6 0.2 0.3-0.6 0.3 0.2 0.5-0.3 0.4 0 0.6 0.5 0.2-0.4 1-0.3 0.2-0.4-0.5-0.5 0-0.2 0.4 0.1 0.5-0.5 0.7-0.6-0.2 0.2-1.2-0.4-0.2-0.4-0.6 0.2-0.4-0.5-0.4 0.1-0.5-0.4-0.7-0.4 0-0.2-0.5 0.3-0.3-0.2-0.7-0.4-0.2-0.2-0.6-0.4 0.1-0.3-0.6-0.3-0.2-0.5 0.1-0.1-0.8 0.1-1.1-0.2-0.1-0.2-1.1 0.6-0.4 0-1 0.3-0.4 0.7 0 0.6 0.1 0.6-0.7 1.4-0.1 0-0.3 0.5-0.3 0.6-0.1z m-3.7-5.6l0.3 0.6 0 0.7 0.9 0.6-0.1 0.5-0.3 0.3-0.5 1-0.5 0.2-0.7 0.5-0.3 0.7-0.6 0.5-0.5-0.7 0.1-0.6-0.2-0.5 0.3-0.4-0.1-1.1 0.8-0.5 1.3-0.4-0.1-1.2 0.2-0.2z m-9.1-16l0.8 0.5-0.2 0.9 0.5 0.4 0.3-0.3 0.8 0.9 0.4 1.1-0.4 0.7-0.5-0.8-0.7-0.2-0.5 0.2-0.6 0.5-0.6-0.2-0.3-0.3 0.1-0.7-0.8-0.5-0.2-0.5 0.4-0.4-0.1-0.5 0.4-0.5 0.5 0.1 0.7-0.4z m4.6-0.1l0.4 0.1 0.5 0.9-0.1 1.6-0.1 0.1-1.8-1.5 0.9-0.9 0.2-0.3z m0.8-2.7l0.3 0.4 0.1 1.2 0.2 0.6-0.2 0.2-0.6-0.8 0.3-0.4-0.3-0.3-0.2-0.7 0.4-0.2z m-1.4-2.9l0.5 0.1 0 0.8-0.5 0.7-0.5 0.2-0.1 0.6 0.6 0.7 0.1 0.5 0.5 0.3 0.1 0.6-0.3 0.8-0.9 0.1 0 0.9-0.4 0.1-0.2-1.1 1.1-0.5 0-0.6-0.3-0.2-0.8 0.9-0.1-0.7-0.7-1.3-0.1-1.4 0.6-0.3 0.4-0.3 0.1-0.7 0.9-0.2z m-8-1l0.5 1-0.4 0.2-0.5-0.6 0.4-0.6z m-3-2.5l0.5 0.3-0.3 1-0.2 0.9 0.8 0.9 1.1 0.5 0.3 0.4-0.3 0.5-0.8-0.2-1.1-0.6-0.6-0.7-0.5-0.7 0-1 0.3-0.9 0.8-0.4z m-2.2-3.2l0.3 0.3-0.1 0.6-0.5-0.3 0.3-0.6z m15.6-2.8l0.2 1.2 0.4 0.1 0.2 1.6-0.5 0 0-1.3-0.4-0.8 0.1-0.8z m-22.6-18.6l0.7 0.7 0.3 0.7 0.2 0.8-0.2 0.7-0.4 0.4-0.6 0.2-0.5-0.3-1.1 0.1-0.3-0.6 0-1.9 1.3 0 0.6-0.8z m-7.5-46l1.2 1 0.1 1.4 0.7 0.7-0.1 1.2 0.4 1.1 0 0.6-0.6 0.3 0.1 0.4-0.8 0.6-0.3 0.6 0.1 0.6 0.6 0.2 0.1 0.3-1 1.3 0 0.3-0.9 0.2-0.5-0.2-0.5-0.5-0.8-0.3-0.4 0-0.5 0.4-0.5-0.3 0.7-1.1 0.3-0.9-0.3-0.9-0.4-0.5-0.4 0 0.1-1.5-0.2-0.6 0-1.1 0.5 0 0.5-0.2 0.5-1 0.7-0.5 0.1-0.6 0.5-0.2 0.4-0.5 0.6-0.3z m3.5-17.1l0.7 0.6 0.5 1.6-0.6 1 0.8 0.2-0.1 0.5-1.4 0.7-1.1 0-0.5-0.6 0.3-0.4-0.1-0.5 0.9-0.1 0.1-1-0.4-0.5 0.2-0.8 0.4-0.8 0.3 0.1z m-0.9-2.2l0.2 0.7-0.5-0.1 0.3-0.6z m-10.7-0.1l0.6 0 0.8 0.2 0 0.9 0.1 0.5-0.4 0.5-0.2-0.2-1-0.1-0.2-0.5 0.3-1.3z m8.8-0.3l0.1 0.3 0.6 0 0 0.5-0.3 0.4-0.5 0-0.1-0.9 0.2-0.3z m13.2-6.7l0.3 0.2 0.8-0.2 0.3 0.2-0.6 0.7-0.9-0.5 0.1-0.4z m-11.7-3.7l0.3 0.9-0.3 0.2 0-1.1z m10.2-1.6l0.4-0.3 0.6 0.4 0.1 0.9 0.8 1.4 0.5 1.4-0.3 0.4-0.5-0.1-0.1-0.4-0.9-1.4-0.4 0.1-0.4-0.9-0.7-0.2-0.1-0.5 0.5-0.2 0.5-0.6z m0.6-2.1l0.4 0.1-0.2 1.6-0.2 0.1-0.8-0.8 0-1 0.8 0z m1-1.4l0 0.5 0.2 0.4 0.1 0.8 0.5 0.6-0.1 0.4-0.3 0.4-0.4-0.6-0.5-0.2 0-0.9-0.9-0.1-0.3-0.3-0.2-0.6 0.2-0.2 0.8 0.3 0.9-0.5z m1.2-1.5l0.4 0.5 0.3 1.3-0.2 0.5 0.1 0.6-0.2 0.5-0.4 0.1-0.9-1.3 0.5-1.6 0.4-0.6z m-10.1-0.7l0.1 0.2 0.3 1.7 0.6-0.4 0.5 0.2 0 0.6-0.5 1.2-0.1 0.6 0.5 0.5 0.6 1.2-0.3 0.3-0.6-0.4 0.4 1.3-0.8 0.4-0.3 0.6 0.4 1.5 0.4-1 0.9-0.1 0.3 0.3-0.3 0.9 0.3 0.6-0.9 4.3-0.4 0.3-0.6 0.1-0.5 0.3-0.1 0.8-0.4 0.4-0.4-0.1 0 0.6 0.6 0 0.7-0.9 0.8-0.3 0.3 0.3-0.1 1.5-0.6 1.5-0.2 0.9 0.1 0.2-0.5 0.8-0.3-0.5-0.9 0-0.5-0.4 0.1-0.8-0.6-0.6-0.6-0.6 0.1-1.1-0.4-0.9 0.1-0.7-0.3-0.8-0.4 0.1-0.3 0.6-0.3-0.8 0.1-1.4-0.3-1.6-0.5 0.1-0.3-0.6 0.3-0.7 0-0.6 0.3-0.3 0.2-0.5 0.6-0.6 0.3 0.5 0.3 1 0.6 0.5-0.1-1.4 0.1-0.5 0.1-1.9 0.3-1.5-0.1-0.3 0.1-0.8 0.2-0.6 0.4-1.6 1.2-1.6 0.3 0z m0.8-0.2l0.2 0.3 0.7 0.1 0.1 0.8-0.1 0.5-1.1-0.2 0-1.1 0.2-0.4z m4.7-0.3l0.3 0.7-1.2-0.2 0.9-0.5z m4.8-0.2l0.3 0.7-0.1 0.4-0.5-0.1 0.1-0.9 0.2-0.1z m-10-1l0.3 0.1-0.3 1.3-0.3-0.6 0.3-0.8z m6.3 0.5l-0.5 0.6-0.6-0.6 0.3-0.4 0.4 0.4 0.4 0z m-4.5-0.9l0.4 0.2 0.5-0.2 0.5 0.3 0.8-0.1 0.3 0.1 0.5 1.2-0.8 0.3 0.4 0.6 0.1 0.9-0.6-0.3-0.2 1.2-0.3-0.2-1 1.7-0.2 0.7-0.8 0.6-0.7-0.6 0.1-0.4 0.7-2.2 0.1-0.7-0.1-0.7-0.4-0.2-0.3-0.3 0.3-0.9 0.3 0.3 0.5-0.6-0.1-0.7z m29.1-0.3l0.5 0.8 0.5 0.3-0.1 0.4 0.2 0.9-1.1 0-0.4-0.2-0.3-1.2 0.2-0.6 0.5-0.4z m-27-2.4l0.5 0.1 0.5 0.4-0.7 0.3-0.5-0.4 0.2-0.4z m2.8-0.2l-0.4 0.4 0 0.5-0.3 0.7-0.3-0.2 0.2-0.6 0.1-0.9 0.5-0.3 0.2 0.4z m-6.7-11.6l0 1.5-0.5-0.6 0.5-0.9z m5.1-2.4l0.3 0.2 0 0.7 0.5 0 0.5 1.6 0.2 0.5-0.5 0.7 0.1 0.4 0.6 0.4 0.1 0.7 0.4 0.3-0.4 0.6 0 0.4-0.2 1.1 0 1 0.1 0.8 0.4 1-0.4 1.6-0.4-0.3-0.3 0.4 0.4 0.5-0.2 0.4-0.5 0.4-0.2 0.7-0.5-0.5-0.6 0.3-1.3-0.3 0.3 0.9 0.9 1.2 0.4 0.9-0.3 0.3-0.5-0.1-0.7 0.4-0.6-0.4-0.4 0.3-0.7-0.4-0.6 0.5-0.8 0-0.5-1-0.1-2.4 0.2-0.8-0.1-0.5 0.2-0.6-0.4-0.7 0.1-0.7 0.3-0.5 0-1-0.4-0.4 0.4-0.2 0.2-0.6 0.6-0.1-0.1-0.4 0.3-0.5-0.4-0.7 0.3-0.1 0-0.7-0.3-0.5-0.3-1.3 0.1-1.1 0.4 0 0.9-1 0.6 0 0-0.7 0.9-0.2 0.1 0.3 0.1 0 0.2-0.2 0.1 0.2-0.1 0.2 0.1 0.1 0.9-0.2 0.4-0.4 0.2-0.5z m-5.5-2.2l0.6 0.4 0.1 2.5-0.2 0.7-0.7 0.8 0 0.5-0.5 0.7-0.5-1.3-0.1-0.6 0.4-0.6 0.1-1 0.3-0.7-0.2-0.3 0.4-1 0.3-0.1z m8.5-0.1l-0.4 0.3-0.6 0.9-0.3-0.1 0-0.9 0.5 0.3 0.8-0.5z m-2.2-0.8l0.3 0 0.2 0.8-0.7-0.1 0.2-0.7z m36.8-12.4l0.1 0.7-0.5 0.3-0.2-0.5 0.6-0.5z m-34-3l0.3 0.7 0.1 1.2-0.2 0.6-0.1 0.7 0.1 1.1 0.4 0.4 0.3 1.2 0.5 0.6-0.2 0.5-0.5-0.2-0.4 0.2 0-0.8-0.4 0.2-0.6-0.2-0.7 0.5-0.4-0.7-0.2 0.4 0.1 0.5 0.5 0.1 0.9 0.5 0.9 1.3 0.4-0.1-0.1 0.8-0.6 1.6 0.1 1.1-0.2 0.2 0.2 1.1-0.2 0.7-0.6 1-0.5 0.2-0.5-0.1-0.3 0.4-0.6-0.7-0.2-0.7-0.4 0.3-0.4 0.9 0.2 0.6 0.8 0.7-0.3 0.5-0.5-0.1 0-0.7-0.7 0.1-0.2 0.5 0 0.5-0.5 0.3 0 0.9 0.4 0 0 0.6-0.4 0.1-0.2 0-0.2 0.1-0.1-0.1 0.1-0.2 0-0.2-1.2-0.2-0.2-0.4 0.2-0.6-0.2-0.5 0-0.8 0.6 0 0.1-0.5-0.7-0.4 0.1-1 0-1.1 0.7-0.4-0.3-0.7 0.9-0.5-0.9-0.2 0.6-1.7-0.1-0.7 0.6 0 0.1-0.6-0.4 0-0.5-0.5 0.6-0.7-0.5-0.1 0-0.7 0.3-0.2 0-0.8 0.5-0.6-0.3-0.6 0.8-0.2 0.3-0.4-0.3-0.5 0.1-0.8 0.7-0.1 0-0.5 0.8-0.1-0.5-0.9 0.2-0.1 1.2-0.2 0.3 0.4 0.5-0.2-0.3-0.5 0.3-0.3 0.6 0.4 0.1-0.7 0.3 0.1z m-0.4-2.9l0.3 0.4-0.3 0.5-0.8 0-0.1-0.6 0.9-0.3z m9.6-13.6l0.3 1-0.1 0.8-0.2 0.7-0.3-0.1 0.2-0.7-0.2-1.5 0.3-0.2z m7.5-21.1l-0.2 0.8-0.5 0 0.3-0.7 0.4-0.1z" id="andamanAndNicobar" name="Andaman and Nicobar">
</path>
    <circle class="8.270456422425491|69.64751778317537" cx="139.9" cy="912.7" id="0">
    </circle>
    <circle class="20.400061359468964|84.26020775342162" cx="540" cy="569.2" id="1">
    </circle>
    <circle class="35.5620675307733|95.95035972961863" cx="860.1" cy="97" id="2">
    </circle>
<circle class="Andaman and Nicobar" cx="770.3" cy="814.6" id="andamanAndNicobar">
</circle>
</svg>