<svg baseprofile="tiny" fill="orange" height="1000" stroke="#ffffff" stroke-linecap="round" stroke-linejoin="round" stroke-width=".5" version="1.2" viewbox="0 0 1000 1000" width="1000" xmlns="http://www.w3.org/2000/svg">
    <path d="M173.4 559.9l-0.8-0.4 0.4-0.6 0.4 1z m49.5-12.8l0.7 0.2-0.1 1.2-0.7 0-0.2-1.2 0.3-0.2z m1.2-15l0.7 0.2 0 0.3-0.7 0.1 0-0.6z m-84.7-23.5l0.4 0.3 0.3 0.6-0.5 0.7-1.1-0.5 0-0.7 0.9-0.4z m-8.9-0.4l0.7 0.3-0.2 0.4-0.8-0.3 0.3-0.4z m0.6-1.6l0.7 0 0.4 0.5-0.5 0.2-0.8-0.5 0.2-0.2z m16.3-0.8l0.3 0.3 0.3 0.8-0.7 0.2-0.6 0 0.2-1 0.5-0.3z m2.4-1.1l0.5 0.2 0 0.5-0.5 0.4-1.2 0.3-0.2-0.5 0.3-0.5 1.1-0.4z m12.1-13.7l-0.3 1-0.4 0.6-0.3-0.5 1-1.1z m-51.8-7.8l0.2 0.4 1.2 0.1 0.2 0.7-1.2 0.4-0.1 0.3-0.8-0.5 0-0.5 0.5-0.9z m-1.4-0.8l0.6 0.1 0.2 0.6-0.7 0-0.1-0.7z m2.3-1l0.7 0.8-0.6 0.3-0.6-1.1 0.5 0z m-2.3-2.4l0.4 0.6-0.5 0.1 0.1-0.7z m-0.9-0.7l0.6 0.6-0.3 1.6-0.5 0-0.2-0.8 0.1-0.6-0.8 0.3 0.3-0.7 0.8-0.4z m0.2-3.5l0.1 0.6-0.5 0.7-0.7 0.5-0.2-0.6 0.5-0.3 0.4-0.8 0.4-0.1z m-0.7-0.9l0.3 0.7-0.7 0-0.2-0.4 0.6-0.3z m-2.6-5.3l1 0.6 0.8-0.4-0.3 1.3 0.1 0.7-0.8 2.2-0.8 0.9-0.4 0.8-1.4 0.6-0.8-0.7-1.2 0.4-0.7-0.4-0.3-0.6 0.6-0.6 1.7-0.2 0.3-0.6 0.9-1 0-0.3 0.7-0.6-0.1-0.8 0.7-1.3z m-1.4-0.6l0.3 0.6-0.1 1.2 0.2 0.9-0.7 0.1-0.8 0.8-0.3-0.4 0.2-0.3 0.1-0.7-0.1-0.3 0.3-1.1 0.6-0.2-0.1-0.5 0.4-0.1z m5.1-0.2l0.4 0.1 0.4 0.7-0.3 0.4 0.1 0.3 0.1 0.2-0.1 0.6-0.8 0.5-0.6-0.2-0.8 0 0.5-0.9-0.2-1 0.3-0.3 1-0.4z m-2.7-1.4l0.5 0.2 0.6 1.1-0.3 0.7-0.7 0.6-0.6-0.2-0.2-0.4-0.5 0-0.3-0.8 0.9-0.7 0.1-0.4 0.5-0.1z m-4.1-0.1l0.1 0.6-0.5 0.5-0.5-0.1 0.1-0.6 0.8-0.4z m5.5-1.7l0.2 0.1-0.2 1.2 0.1 0.4-0.7 0.5-0.2-0.3-0.6-0.2-0.5 0.1-0.2 0.3 0 0.2-0.4 0-0.2-0.9 0.2-0.4 0.8-0.1 0.9-0.4 0.2-0.4 0.6-0.1z m2.4-0.3l0.2 0.4 0.4 0.1 0 0.1 0 0.1 0.1 0 0.7 0.1-1.3 1.6-0.5 0.3-0.8-0.3-0.1-0.7 0.7-0.4 0.5-0.4 0.1-0.9z m-1.5-1.4l0.6 0.6-0.2 0.4 0.6 0.6 0 0.5-0.9 0.7-0.3 1.1-0.8 0.5-0.4-0.2 0.7-0.8 0-1.4 0.1-0.2-0.3-0.2-0.5 0.1 0.5-1.3 0.4-0.3 0.5-0.1z m-1.4 0l0.2 0.2-0.1 0.8-0.4 0.8-0.4 0.4-1.5 0.4-0.2 0.5 0.1 0.9-0.3 0.6 0.1 0.6-0.7-0.1-0.2 0-0.3 0.1 0 0.5-0.6 0.2-0.3 1.1 0.1 0.4-0.3 1 0.3 0.5-0.3 0.5-0.4 0-0.9-0.8-0.4-0.7 0.4-0.7 0.5-0.3-0.4-1.4 0.1-0.8 0.6 0 0.5-0.6 0.1-0.7 0.5-0.5 0.2-0.7 1.2 0.2 0.4-0.3 0.2-1.2 0.7-0.6 0.3 0.6 0.4-0.1 0.8-0.8z m131 114.4l-0.1 0-0.4-0.5 0-0.3 0.1-0.3 0.7-0.5 0.1-0.2-0.5-0.4-0.2 0-0.4-0.1-0.2-0.2-0.8 0.2-0.1-0.1-0.2 0 0.1 0.5 0.1 0.1-0.7 0.8-0.2-0.1-0.2 0-0.3-0.4-0.2 0.1-0.1 0.4-0.3-0.1-0.1-1.1-0.2 0 0.3-0.9 0.3-0.2 0.4 0.2 0.2-0.3 0.1-0.2 0.7-0.4 0.1-0.3 0.1-0.3 0.2 0.1 0.1-0.3 0.1-0.1 0.2 0.2 0.3-0.2 0-0.5 0-0.1-0.8-0.2-0.3 0.2-0.6 0.2 0.2-0.8-0.1-0.3-0.1-0.3-0.1-0.1-0.2-0.2-0.1 0.1-0.1 0.7-0.3 0.3-0.3-0.2-0.2 0.2-0.4 0-0.3 1-0.2 0-0.2-0.1-0.2-0.7 0 0.7-0.8 0-0.1 0.6-0.2 0.1-0.3-0.1-0.5-0.6-0.4 0.2-0.3 0.2-0.1 0.2 0.6 0.8 0.6 0.2 0.2 0.7-0.1 0.1-1.1-0.3-1.2-0.1-0.4 0.5-0.6 0-0.4 0.7-0.2 0.8-0.7 0.2-0.4 0.6-1.4-0.2 0.3-1.9-0.2-1.3 0.3-0.3 0.1-1.1 0.6-0.3 0-0.9 0.3-0.4 0.6-0.1 0.3-0.6 0.3 0.1 0.3-0.9 0.2-0.2 0.6 0.5 0.1 0.2 0-0.3-0.1-0.3-0.1-0.1-0.5-0.2-0.1-0.1-0.1 0-0.1-0.6 0.4-0.5 0.4-0.4-0.2-0.3 0.6-0.6 0.1-0.5 0-1 0.3-0.7-0.3-2-0.3-0.3-0.6-2.4 0.5-0.3-0.4-0.6-0.6-0.5 0.1-0.5-0.3-0.4-0.2-0.6-0.8-1.8-0.1-0.8-0.9-0.6-0.5-1.5-0.3-1.2 0.7-0.8-1.2-0.3-0.2-0.8 0.2-0.8 0.2-0.4-0.9-0.5-0.4 0.1-0.2 0.5 0 1.5-0.2 0.3-0.7-0.4-0.2-1.6 0-2.3-0.6-0.8-0.2-0.8 0.1-1 0.8-1 0-0.9 1.2-1.5-0.4-0.3 0-0.7 0.4-0.6 0.2-1.2-0.1-0.4-0.8 0.8-0.4 0.2-0.8-1.3 0.2-1 0.6-1.1 0.6 0 0.7-0.3 0.8-0.7 0.5 0.4 0.7-0.1 0.1-0.3 1 0.2 0.3-0.5-1-0.2-0.7-0.6-0.7 0.3-3.1-0.1-1.1 0.7-0.3 0-0.6-0.7-0.1-0.9 0.6-0.9 0-0.6 0.3-0.9 0.4-0.9-0.9-0.7-0.3-0.1-0.2-1.1-0.3-0.3-0.1-1.1 0.1-1.7 0.3-1.1 0.3-1.4 0.5-2.1 0.6-1.1 0.9-0.8 1.3-0.1 1.4 1 1.6 0.3 0.4-0.6 0.7-1.3 0.5-0.3 1.5 0.7 0.8-0.3 0.3-0.3-1.2 0-0.4-1.1-0.3 0-0.9 0.5-1.4 1-1.8-0.2-0.9-1-0.6-0.4-0.8 0.2-1 0.7-0.4-0.2-0.4 0.5-0.5 0-0.4 0.4-0.6 1-0.4-0.1 0.6-1.3-0.7 0-0.9-1.7-1.3-0.3 0.4-0.5 0-0.7-0.7 0.5-0.1 0.9 1 0.2 0.1 0.4 0 1 0.1 0.7-0.5 0.8-0.7-1-0.4 0.3 0.2 0.7 0.6 0.5-0.1 0.7-0.7-0.5-0.1 0.7-0.4 0.5-0.5-0.3-0.3 0.3 0.3 0.4-0.2 0.6-1 4-0.5 0.2 0-0.6-0.3-0.2 0.3-1-0.4-0.4-0.1-0.5 1.2-0.7 0.5-0.1-0.1-0.8-0.7 0.4 0.1 0.3-1.1 0.6-0.2 0.4-0.5 1.4 0.5-0.1-0.3 1.6 1 1.8 0.1 3.1 0.2 0.8-0.6 0.2 0.4 0.8 0.5 1 0.1 0.6 0.5 0.7 0.1 0.5-1 1.6-0.1 0.9-0.4 1.4-0.7 1.6-1.5 1.5-0.1 0.4-0.9 1-0.7 1.2 0.1 0.4-0.8 1.2 0.2 0.5 0.6 0.3 0.1 0.5-1.6 0.9-0.2 0.3-1.1 0.5 0.3-1.1-0.9 0.7 0.1 0.4-1.1 0.8-1 0.1-3.2 1.6-0.3 0.6-0.6 0.5-1.2 0-1.1 0.7-0.5 0-0.7 0.2 0 0.5-1 0.3-1.9 0.6-0.6 0 0 0.8-0.4-0.1-0.5 0.9-0.8 0.2-0.3 0.4-1.1 0.1-0.6 0.3-1.4 0.2-2.4 1.3-0.7 0-0.2 0.4-1.1 0.3-0.4 0.6-1-0.1-0.7 0.2-0.1 0.5-0.8 0.2-0.5-0.2-1-0.1-0.2-0.1-0.8 0.5-0.3-0.2-0.6 0.1-0.6 0.1-0.4 0.6-0.1 0-0.4-0.1 0-0.5-0.5-0.7 0.2-0.3 0-0.6 0.9-0.3 0.1-0.7-0.2-0.5-1.1 0.1-0.4-0.2 0.1-0.6 1.2-0.5 0.4-0.3 0.1-0.5-0.4-1-0.2-0.6-0.5-0.1-0.3-0.1-0.1-0.2-0.6 0.3-0.5-0.1-0.4 0.1-0.4-0.2-0.1 0.2-0.2-0.1-0.3-0.3-0.4-0.5-0.2 0.1 0.2 0.3-0.3 0.5-0.3 0.7-0.1 0.7-0.6 0.9-0.4 1.1-0.1 0.7 0.2 0.6 0 0.5-0.2 0.4-0.1 0.2-0.7 0-1.7-0.6-0.9-0.6-1.4-0.6-0.7-0.5-0.3 0-1.1-0.6-0.8-1-0.8-0.2-2.9-2.1-3.2-2.8-0.2-0.3-1-0.7-1.1-1.1-0.8-1.1-0.6-0.6-2.3-2.7-1.2-1.5-3-3.7-1.6-1.8 0.5-0.4-0.1-0.4 0.6-0.2 0.4-0.5 0-0.5-0.3-0.4-0.2-0.8-0.5 0.1-0.8-0.3-0.2 0.4 0.6 0.6-0.2 0.6 0.6 0.6-0.3 0.9-0.3 0-0.9-0.8-1.9-2.1-0.5 0-1.4-1.3-1.7-1.8-1-0.7-0.9-0.9-0.7-0.9-0.6-0.3-2.6-2.4-1.3-1.3-2.3-2.7-1-1.3-0.9-0.8-1.1-1.5-1-1.1-0.8-1 0.1-0.4-0.5-1.5 0.1-0.6 0.4-0.1 0-0.9 0.8-1.4 0.6-0.8 2-1.2-0.1 0.8-0.9 0.7 0.7 1 0.4 0.1 0.7-0.5 0.4 0.3 0.7-0.1 0.6-0.6 0.6 0 0.2 1-0.6 0.4-0.3 0.9-0.2 1.1 0.3 0.4 1 0.9 0.9 0.1 0.5-0.2 0.9-0.2 1.2-0.9 0.1-0.8 0.7 0.3 1.6 0.2 0.9-0.6 0.3 0.1 0.6-0.2 0-0.5 0.9-0.7-0.2-0.5 0.2-0.9 0.8 0.7 0.2 1.1 0.5-0.1 0.6 0.6 0.5 0 0-0.5 0.7 0.3 0.3-0.1 0.3-1 1-0.1-0.2-0.7 0.2-0.4-0.3-0.5 0.8-0.4 0.6 0.2 0.1 0.8 0.5-0.1 0.8 0.9 0.4-0.1 0.4-0.6 0.2-0.7 0.3-0.2 1 0.3 0.5-0.6 0.5 0 0-0.6 0.6-0.8 0.2 0.1 0.1-0.5 1-0.5 1.8-0.3 0.5 0.2 2 0 0.7-0.1 0.8-1 0.1-1 0.6-0.3 0.7-1.2-0.2-0.8 0.5-0.3 0-0.6 0.4-0.2 0.8-0.7 0-0.4 1.1-1.8 0-0.5 1.2-1.8 0.7-0.3 0.4-0.4 0.2-0.7 0.7-0.9 0.4-0.8 0.6-1.9-1.3 0.3-0.5 0.3-0.8 0.9-0.1 1.9-0.3 0.5-1.1 0.4-0.6-0.1-0.5-0.5-0.4 0.2-1-0.8-0.6-0.1-0.1 0.5-0.5 0.2-0.9 0-1 0.3-0.2 0.5-0.7 0.5-3.2 0.3-1 0.2-1.3 0.8-1.1-0.2-1.3 0.6-0.5 0-1.3 0.9-0.1 0.8-0.9 1.3-0.1 0.4-1-0.6-1.5-0.3-0.6 0.2-0.8-0.3-0.5-0.5-0.8-0.1-1.3 0.5-0.8-0.2-1.5-1-1.2-0.2-0.8-0.3-1.4 0.2-1.2-0.4-0.7 0-1.3-0.8-0.6-0.3-0.5-0.5-1.8-1.1-1.5-0.8-1.2-0.7-1.1-0.8-0.5-0.3-2-1.3-1.4-0.6-0.7-0.6-1.5-1.2-0.6-0.3-0.9-1.1-1.1-1 0.7-0.2 0.8-1.2-0.3-0.8 0.8 0-0.7-0.7 0.1-0.8-0.7-0.5-0.2-0.5-0.4 0.1-0.3-0.4-0.3 0.3-0.3-1.3-0.6 0-0.1-0.8-0.7-0.4 0-0.8-0.4-0.4 0.2-0.3-0.3-0.8 0.2-0.5-0.2-1.2 0.1-0.3-0.1-0.9 0.3-0.6 0.5-0.2 0.3-0.8 0.5-0.2 0.3-0.6 1-0.5 0.3-0.4 0.7-0.4 0.8-1.3 0.7-0.5 1.1-0.3 0.1-0.7-1.6-0.2-0.7 0.7-1.3-0.1-0.6 0.6-0.3 0.7-0.8 1.2-0.3-0.1 0.1-0.3-0.3-0.4 0-0.3 0.2-0.2 0-0.5 0.7-0.7 0.6-1.2 1.1-0.7 0.2-0.4-0.3-0.5-0.6-0.2 0 0.5-0.2 0-0.5 0 0-0.2-0.1-0.1-0.4 0-0.1-0.3 0.2-0.6 5.5 0.1 0.1-1.2 0.2-1.1 0.1-1.9 0.1-5.5 0.2-0.3 1.5-0.4 0.3 2.4 0.2 0.6 0.9 0.3 0.5 0 0.7-1.8 0.7-0.6 0.6 1.2 0.4 0.3 0.8-0.1 2-1.1 0.9 0.1 0.5 0.3 1.7 0.6 0.8-0.5 1.2-0.5 1-0.3 1.4 0.3 0.6 0 1.3-0.2 1.9 0.6 2.2-0.5 0.6-0.2 0.4 0.5 1.8 1.7 1.2 0.9 2.7 0.2 2.4 0.1 1.8 0 1.3-0.2 0.6-0.4 0.8-0.9 0.9-2.1 1.1-0.5 2.4-0.5 1.6-0.7 0.8-0.2 1.2-0.2 2.5-1 0.6-0.1 1.3-0.6 1.2-0.3 1 0.6-0.5 1.3-0.5 0.4 0.2 0.8-0.2 0.6 0.4 0.4-0.4 0.6 0 0.4 0.5 0.3 0.6 0 1.1 0.5 2 0.1 2.2-0.1 0.8-0.3 0.5-0.4 1.1-0.3-0.3-1 1.1-0.8 1-0.9 1-0.4 0.4 0.4 1 0 0.5-0.3 0.6-0.7 0.9-0.3 0.3-0.7-0.4-0.5-0.7-0.2-1.7 0.1-0.6-0.3 0-0.7 0.2-1.7-0.5-0.5 0.2-0.8-0.1-1 0.5-0.9 0.7-0.3 1.1-0.7 0.6-0.5 0.3 0.3 1.5 0.6 0.9 0.3 1 0.4 0.5 0.2 1 0.4 0.8-1.1 0.8-0.3 0.3 0.8 0.4 0.2 1.1-0.6 0.8-0.6 0.7-0.1 0.3-0.3 1.4-0.2 0.4 0.3 0.8-0.2 0.4 0.4 0.6-0.2 0.7 0.5 0.5 0.6 1.5-0.6 0.8 0 1-0.5 0.8 0.3 0.1 0.4-0.1 0.7 0.9 0.2 0.7-0.2-0.2-0.8 0.2-0.7 0.6 0.2 0.5-0.1 0.4 0.2-0.2 0.5 0.5 0.6 0.9-0.3 0.7-0.6 0-0.6 1.3-0.6 0.3-0.3 0.9 0.3 0.2 0.6-0.2 0.7 0.8 0.6 1 0 0.3 0.5 0.6 0.2 0.9-0.3 0.3-0.4 0.6 0.4 0.7-0.1 1.1 0.4 0.7-0.4 0.3 0.2-0.3 0.7-0.8 0.2-0.3-0.4-0.7 0-0.7 0.6 0.6 0.9 0.5-0.2 0.1 0.5 1-0.1 0.1-0.4 0.6 0.1 0.8 1.6 1-0.2 0.6 0.1 0.1 0.3-0.3 1 0.5 0.7 0.3 0.9 0.6 0.1 0.6-0.4-0.2-1 1.1-1.6 0.9 0.5 0.4 0.4 1.9 0.5 0.9-0.1 0 1.2 0.4 0.9 0.7 0.9 2.3 0.1 0.4-0.2 1-0.1 0.9 0.5 0.6 0.7 1.5-0.9 0.3-0.5-0.7-0.6 0.8-0.8-0.3-0.9 0.9-1 0.2 0.6 0.8 0 1.2-0.9 0.4 1.1-0.1 1.1-0.5 0.8 0.7 0.2 0.4 0.6 1 0.4 0.5 0.1 0.8-0.7 0.6 0.3-0.6 0.9-0.7 0 0 0.7-0.3 0.3-0.8-0.2-0.2 0.8-0.6 0.5-0.7 1.3-0.2 1.1 0.9 0.9 0.2 0.4 0.7 0.5 0.6 0.4 0.8 0.1 0.7 0.3-0.7 1.6 1.4 1 0.7-0.5 0.4 0 0.4-0.7 0.6-0.4 0.2-0.6 0-0.9 0.9 0 0 0.8 0.8 0.4 0.5 0.7-0.1 1.6 0.3 0.7-0.1 1.5-0.6 0.2-0.3 0.3-0.7 1.6 0.3 1-0.3 0.9 0.4 0.7 0.7-0.5 0.5 0.1 0.4 0.5 0.5 0.3 0.1 0.4 0.5 0.4 0.1 0.5 0.7 0.1 0.2 0.3-0.2 1.8 0.3 0.6 0.3 0.2 0.8-0.6 0.5-0.7 1.3 0.1 0.6 0.6 0.5 0.2-0.3 0.5 0 0.9-0.3 0.4 0 0.9 0.6 0.6-0.4 0.5-0.4 1.3 0.6 0.4 0.4-0.4 1-0.1 0.4 1.1 0.4-0.2 0.9-1 0.5 0.7 1.2-0.3 1.1 1.5 0.3 0.8 0.4 0.5 0 0.4 1.2-0.1 0.3-1 0.4-0.2 0.6 0.7 0.2 0.6 1.1 0.2-0.1 0.3 0.5 0.8 1.2-0.1 0.4 0.1 0.2 0.5 0.6 0.4 0.1 1.1-0.4 0.6 0.1 0.9 0.5 0.1 0.3 0.5 0.7 0.1 0.2-0.5 0.5-0.6 1.1 0.4 0.6 0.6 0.5 1.1-0.2 0.7 0.8 0.5 0.3 0.5 0.2 0.6 0.6 0.4 0.1 0.8 0.5 0.7-0.8 0.4 1.1 1.7 0.5 0.3 0.5-0.6 0.9-0.2 0.3 0.3 0.4 1.7-0.4 1.3-0.7 0.1 0 0.7-1 1.7-0.1 1.1-0.4 0.7 0 0.8-0.5 0.2-1-0.3-0.9 0.1-0.5-0.2-0.6 0.4 0.1 0.3-0.6 0.3-0.3 0.9-0.3 0.5-0.4-0.1-0.2 0.5-1 0.7-0.1 0.4-0.7-0.2-1.2-0.8-0.5 0-0.6 0.3 0 0.7 1.1 0.3-0.2 1.2 0.6-0.1 0.2 1.1 0.5 0.4 0.5-1 0.4 0.4 0.8-0.1-0.1-0.6 0.6-0.1 0 0.9 0.9-0.1 0.7 0.5 0.3 0.9-0.9 0.5-0.4 0.5-0.8 0.5-0.2 0.6-1.5-0.3-0.2-0.6-0.4-0.6-0.5 0.3-0.6 0.1 0.1 0.5-0.2 0.3-0.3 1.4 0.5 0.5 0 1.4 1 0 0.3 0.2 0.1 1.4 0.2 0.1-0.2 0.9 0.1 1.1 0.6-0.3 0.5 0.1-0.2 1.2-0.7 0.2-0.4 0.5-0.6 0.6 0 0.5 1.4 0.4-0.3 0.5 0.1 0.5-2.7 0.9-0.7 0.5-1.2 0.5-1.5 0.9-0.6 0.1-0.6 0.5-1 0-0.9 0.4 0.5 0.4 0.4 1.1-0.3 0.3 0.4 0.6 1.2 0.9 0.2 0.3 0 1-0.3 0.7-0.7 0.1-0.4 0.2-0.5-0.2-0.8 0.2-0.3 0.3 0.5 0.6 0.5 0.2 0.3 1.3 0.4 1.2 0.3 0.5 2.1-0.8 0 0.3 1-0.4 0.3-0.5 0.5 0 0.6-0.3 0.6 0.1 0.6-0.3 1.8 0.1 1.4-0.1 0.6 0.9 0.8-0.6 0.5 0.4 0.4 0 0.6-0.7 0.5-0.2 0.1 0.6 0.6 0.2-0.2 1.3-0.6 0.4-0.9 0.2-0.3 0.3-1.1 0.2-1-0.3-0.7 0.4-0.5-0.2-0.6 0.3-1.1-0.2-0.3-0.7-0.3 0.7-0.2 0.9-1.1 0.4-0.8 0.5-0.5 0.1-0.2 0.5 0 0.9-0.2 1.4-0.4 0.4-1.2 0.6-0.9-0.2-0.7 0.1 0.1 0.7-0.4 0.6 0 1.5-0.7-0.3-0.4 0.5-1.1-0.1 0.2 0.5-0.3 0.4-0.6-0.4-0.9 0-1.3 0.5 0.1-0.6-0.5-0.1-0.4-0.6-0.5 0.3 0 0.4 0.7 0 0.4 1 0.8 0 1 0.6 0.4-0.4 0.8 0.3 0.2 0.6-0.1 0.8 0.2 0.5 0.5 0 0.5 0.6 0.6-0.1 0.3 0.7 0.8 0.1 1.6 0.3-0.2 1.5 0.5 0.5 0.4 0.9 0 1.1 0.4 0.2-0.1 0.9 0 1.2 0.2 0.8-0.8 0.5-0.8-0.2-0.4 0.3-0.3 0.8-0.6-0.2-0.6 0.2 0.1 0.6 0.5 0 0.1 0.5 0 1-1.1 0.6-0.5 0-1.1 1-0.3-0.2-1-0.1-0.9 0.4-0.8-0.4-0.4-1.4-0.9-0.6-0.8 0-0.5-0.7-0.4-0.1-0.8 0.6-0.3-0.7 0.2-0.3-0.4-0.9-0.6 0.1-0.1 0.6-0.4 0.9-1 0.3 0 0.3 0.6 0.5 0.4 0.9 1.1 0.3 0.1 0.6-0.1 0.6 0.5 0.1-0.7 0.8 0.1 0.5-0.8 0.8-0.7 1.6-0.7 0.4-0.2 0.8 0.7-0.3 0.3 1.3 0 0.5 0.3 1.1-0.3 0.2-0.2 0.6 0.2 1.6-1.4 0.2-1.8-0.4-0.4 0.4 0 1.2-0.7 0.4-0.2 0.3-0.7 0-0.6 0.2z" id="gujarat" name="Gujarat">
    </path>
    <circle class="8.270456422425491|69.64751778317537" cx="139.9" cy="912.7" id="0">
    </circle>
    <circle class="20.400061359468964|84.26020775342162" cx="540" cy="569.2" id="1">
    </circle>
    <circle class="35.5620675307733|95.95035972961863" cx="860.1" cy="97" id="2">
    </circle>
    <circle class="Gujarat" cx="199.2" cy="481" id="gujarat">
    </circle>
</svg>