<svg baseprofile="tiny" fill="orange" height="1000" stroke="#ffffff" stroke-linecap="round" stroke-linejoin="round" stroke-width=".5" version="1.2" viewbox="0 0 1000 1000" width="1000" xmlns="http://www.w3.org/2000/svg">
    <path d="M232 912.4l0.1 0 0 0.1-0.1 0 0-0.1z m1.9-1.3l0 0.1-0.1 0 0 0.1 0 0.1-0.1 0 0 0.1 0 0.1-0.1 0 0 0.1 0 0.1 0 0.1 0 0.1-0.1 0 0 0.1 0.1 0 0 0.1 0 0.1-0.1 0 0 0.1-0.1 0-0.1 0 0 0.1 0 0.1-0.1 0 0 0.1-0.1 0 0 0.1-0.1 0-0.1 0-0.2 0-0.1 0-0.1 0 0-0.1-0.1 0-0.1 0 0-0.1-0.1 0 0-0.1 0.1 0 0.1 0 0 0.1 0.1 0 0.1 0 0.1 0 0.1 0 0.1 0 0-0.1 0.1 0 0.1 0 0-0.1 0.1 0 0-0.1 0.1 0 0-0.1 0-0.1 0.1 0 0-0.1 0.1 0 0-0.1 0-0.1 0-0.1 0.1 0 0-0.1 0-0.1 0.1 0 0-0.1 0-0.1 0.1 0 0-0.1 0.1 0 0-0.1z m-21.6-47.8l0 0.1-0.1 0 0 0.1 0 0.1-0.1 0 0 0.1 0-0.1-0.1 0 0.1 0 0-0.1 0.1 0 0-0.1 0-0.1 0.1 0z m36.6-0.7l0.1 0 0 0.1-0.1 0-0.1 0 0.1 0 0-0.1z m0.7-0.8l0 0.1 0 0.1 0 0.1-0.1 0 0 0.1 0 0.1 0 0.1 0 0.1 0 0.1 0 0.1 0 0.1 0 0.1 0 0.1-0.1 0 0 0.1-0.1 0-0.1 0 0-0.1 0.1 0-0.1 0 0-0.1 0-0.1-0.1 0 0-0.1 0.1 0 0.1 0 0-0.1 0.1 0 0-0.1 0-0.1 0-0.1 0.1 0 0-0.1 0-0.1 0-0.1 0.1 0 0-0.2z m-36.3-0.9l0 0.1 0.1 0 0 0.1 0 0.1-0.1 0 0-0.1 0-0.1 0-0.1z m36.5-0.5l0 0.1 0.1 0 0 0.1 0 0.1 0 0.1 0 0.1 0 0.1 0 0.1-0.1 0 0-0.1 0.1 0 0-0.1 0-0.1 0-0.1 0-0.1-0.1 0 0-0.1 0-0.1z m-27.9-11.8l0 0.1 0.1 0 0.1 0 0 0.1 0 0.1 0 0.1 0 0.1-0.1 0 0 0.1 0-0.1 0 0.1-0.1 0-0.1 0 0 0.1-0.1 0-0.1 0 0 0.1-0.1 0 0 0.1-0.1 0 0 0.1-0.1 0 0 0.1-0.1 0 0-0.1 0-0.1 0.1 0 0.1 0 0-0.1 0.1 0 0-0.1 0-0.1 0.1 0 0-0.1 0.1 0 0-0.1 0-0.1 0.1 0 0-0.1 0-0.1 0.1 0 0-0.1z m-12.9-6.6l0 0.1-0.1 0 0-0.1 0.1 0z m0.1-0.1l0 0.1-0.1 0 0-0.1 0.1 0z m41.2-0.1l0 0.1 0 0.1 0-0.1 0.1 0 0 0.1 0-0.1 0.1 0 0 0.1 0.1 0 0-0.1 0.1 0 0.1 0 0 0.1 0.1 0 0.1 0-0.1 0 0 0.1-0.1 0-0.1 0 0 0.1-0.1 0-0.1 0-0.1 0 0 0.1-0.1 0-0.1 0-0.1 0-0.1 0-0.1 0 0-0.1-0.1 0 0-0.1 0-0.1 0.1 0 0-0.1 0.1 0 0.1 0 0.1 0 0.1 0 0-0.1z m-41.2 0.1l0-0.1 0.1 0 0-0.1 0-0.1 0.1 0 0-0.1 0-0.1 0.1 0 0-0.1 0-0.1 0.1 0 0-0.1 0-0.1 0-0.1 0.1 0 0-0.1 0-0.1 0-0.1 0-0.1 0.1 0 0-0.1 0.1 0 0-0.1 0.1 0 0.1 0 0 0.1 0-0.1 0 0.1-0.1 0 0 0.1 0 0.1-0.1 0 0 0.1 0 0.1-0.1 0 0 0.1 0 0.1-0.1 0 0 0.1-0.1 0 0 0.1 0 0.1-0.1 0 0 0.1 0 0.1-0.1 0 0 0.1 0 0.1-0.1 0 0 0.1-0.1 0 0 0.1z m3.2-3.5l-0.1 0 0 0.1 0.1 0 0 0.1 0 0.1-0.1 0-0.1 0 0-0.1 0-0.1 0.1 0 0-0.1 0.1 0z m1-0.2l-0.1 0 0 0.1-0.1 0 0 0.1-0.1 0 0 0.1-0.1 0 0-0.1 0-0.1 0.1 0 0.1 0 0.1 0 0-0.1 0.1 0z m0.2-0.2l0 0.1-0.1 0 0-0.1 0.1 0z m10.9-4.9l0.1 0 0 0.1-0.1 0 0 0.1 0 0.1-0.1 0 0 0.1 0 0.1-0.1 0 0 0.1-0.1 0 0 0.1-0.1 0 0.1 0 0-0.1-0.1 0 0-0.1-0.1 0 0-0.1 0-0.1 0.1 0-0.1 0 0.1 0 0-0.1 0.1 0 0-0.1 0.1 0 0-0.1 0.1 0 0.1 0z m1.6-3.5l0 0.1 0 0.1-0.1 0 0 0.1 0 0.1 0 0.1-0.1 0 0 0.1 0 0.1 0 0.1-0.1 0 0 0.1 0 0.1 0 0.1 0 0.1-0.1 0 0 0.1 0 0.1-0.1 0 0 0.1-0.1 0 0 0.1 0 0.1 0 0.1-0.1 0 0 0.1 0 0.1 0 0.1-0.1 0 0 0.1 0-0.1 0-0.2 0-0.1 0.1 0 0-0.1 0-0.1 0-0.1 0.1 0 0-0.1 0-0.1 0.1 0 0-0.1 0-0.1 0-0.1 0-0.1 0.1 0 0-0.1 0-0.1 0-0.1 0.1 0-0.1 0 0-0.1 0.1 0 0-0.1 0-0.1 0.1 0 0-0.1 0-0.1 0.1 0 0-0.1 0.1 0z m5.8-6.4l0 0.1-0.1 0 0-0.1 0.1 0z m-0.1-0.2l0.1 0 0 0.1 0.1 0 0 0.1 0.1 0 0 0.1 0 0.1 0 0.1 0 0.1 0 0.1 0 0.1-0.1 0 0-0.1 0-0.1 0-0.1-0.1 0 0-0.1 0-0.1 0-0.1 0-0.1-0.1 0 0-0.1-0.1 0 0.1 0z m-22.3-2.9l0.1 0 0 0.1-0.1 0 0-0.1z m14.5-3l0 0.1 0.1 0 0 0.1 0 0.1 0 0.1 0 0.1-0.1 0 0 0.1-0.1 0 0 0.1-0.1 0 0 0.1-0.1 0 0-0.1 0.1 0 0-0.1 0-0.1 0.1 0 0-0.1 0-0.1 0.1 0 0-0.1 0-0.1 0-0.1z" id="lakshadweep" name="Lakshadweep">
    </path>
    <circle class="8.270456422425491|69.64751778317537" cx="139.9" cy="912.7" id="0">
    </circle>
    <circle class="20.400061359468964|84.26020775342162" cx="540" cy="569.2" id="1">
    </circle>
    <circle class="35.5620675307733|95.95035972961863" cx="860.1" cy="97" id="2">
    </circle>
    <circle class="Lakshadweep" cx="233" cy="912.6" id="lakshadweep">
    </circle>
</svg>