<svg baseprofile="tiny" fill="orange" height="1000" stroke="#ffffff" stroke-linecap="round" stroke-linejoin="round" stroke-width=".5" version="1.2" viewbox="0 0 1000 1000" width="1000" xmlns="http://www.w3.org/2000/svg">
    <path d="M419.3 837.5l0.1 0.2-0.1 3.9 0 0.5-0.4 0-0.6 0 0-0.2 0-0.3-0.2 0-0.1-0.1-0.3-0.2 0-0.2 0.4-0.1-0.5-0.3-0.1-0.3-0.3-0.1-0.1 0 0.1-0.1 0-0.3-0.4 0.2-0.2-0.1-0.1-0.2-0.2-0.1-0.4-0.1 0-0.1-0.1-0.1-0.1 0.1 0-0.1-0.3-0.1 0-0.1 0-0.1-0.1 0 0.1-0.1 0.3-0.3-0.1-0.1-0.3-0.3 0.3-0.1 0.3 0 0.4 0.2 0.1-0.1-0.1-0.2 0-0.2-0.1-0.1 0-0.1-0.2-0.1 0-0.3 0.3 0 0.5 0.1 0.4 0.1 0.4 0.1 0.2-0.3 0.2 0 0.2 0.1 0.4-0.1 0.2 0.2 0.1 0 0.4 0z m-0.4-26.9l-0.4 1.6-0.3 0.9-0.3 1.2-0.4-0.8-0.5-0.1-0.3-0.5-0.7 0.3-0.7 0-0.3-0.2 0-0.5-1 0.2 0.1-0.3 0.5-0.1 0.8 0.2 0.4-0.5-0.5-0.6 0-0.5-0.6 0.1 0-0.6 0.5-0.1-0.2-0.7-1.4 0 0.1-0.5 0.2-0.1 0.1 0 0.3-0.3 0.6-0.3 0 0.6 0.4 0.6 0.3 0 0.2-0.1 0.1-0.2 0.7 0.3-0.2 0.1-0.5 0.3-0.3-0.2 0 0.4 0.5 0.2 0.2 1.1 0.2-0.2 0-0.4 0.4-0.1 0.2-0.2 0-0.2 0.1 0 0.4 0.1 0.1-0.4 0.1-0.1 0.2 0 0.1 0.4 0.5 0.2 0.3 0z m-126.1-2.3l-0.1-0.6-0.1-0.3 0-0.6 0-0.1 0-0.2-0.1-0.4 0.1-0.1 0.4-0.2 0.1 0.1 0.2 0.1 0.2-0.1 0.3 0.1 0.3 0.1 0.2-0.4 0.7-0.5 0-0.1 0.3-0.2 0.1 0 0.6 0.1 0.5 0.1 0.2-0.3 0.1 0 0.3 0 0.3 0.2 0.1 0.2-0.3 0.2-0.3-0.1 0 0.2-0.3 0-0.5 0.4-0.4 0.3-0.2-0.1-0.3-0.2-0.3 0.2 0.2 0.4-0.5 0.6 0.1 0.2 0.1 0.1 0.2 0.1-0.3 0.6-0.9 0.1-0.1 0.6 0.5 0.5 0.2 0.9-1-1.4-0.6-0.5z m193.1-132.2l-0.7 0.2 0.2-0.3 0.5 0.1z m-0.7 0.2l-0.3 0-0.9-0.5-0.6 0-0.4-0.2 0.5-0.6 0.7 0.5 1.6-0.1 0.5 0.3-0.7 0.1-0.5-0.2-0.3 0.2 0.4 0.5z" id="puducherry" name="Puducherry">
    </path>
    <circle class="8.270456422425491|69.64751778317537" cx="139.9" cy="912.7" id="0">
    </circle>
    <circle class="20.400061359468964|84.26020775342162" cx="540" cy="569.2" id="1">
    </circle>
    <circle class="35.5620675307733|95.95035972961863" cx="860.1" cy="97" id="2">
    </circle>
    <circle class="Puducherry" cx="417.7" cy="838.9" id="puducherry">
    </circle>
</svg>