<svg baseprofile="tiny" fill="orange" height="1000" stroke="#ffffff" stroke-linecap="round" stroke-linejoin="round" stroke-width=".5" version="1.2" viewbox="0 0 1000 1000" width="1000" xmlns="http://www.w3.org/2000/svg">
    <path d="M267.9 490.7l-0.3-0.5-0.8-0.5 0.2-0.7-0.5-1.1-0.6-0.6-1.1-0.4-0.5 0.6-0.2 0.5-0.7-0.1-0.3-0.5-0.5-0.1-0.1-0.9 0.4-0.6-0.1-1.1-0.6-0.4-0.2-0.5-0.4-0.1-1.2 0.1-0.5-0.8 0.1-0.3-1.1-0.2-0.2-0.6-0.6-0.7-0.4 0.2-0.3 1-1.2 0.1 0-0.4-0.4-0.5-0.3-0.8-1.1-1.5-1.2 0.3-0.5-0.7-0.9 1-0.4 0.2-0.4-1.1-1 0.1-0.4 0.4-0.6-0.4 0.4-1.3 0.4-0.5-0.6-0.6 0-0.9 0.3-0.4 0-0.9 0.3-0.5-0.5-0.2-0.6-0.6-1.3-0.1-0.5 0.7-0.8 0.6-0.3-0.2-0.3-0.6 0.2-1.8-0.2-0.3-0.7-0.1-0.1-0.5-0.5-0.4-0.1-0.4-0.5-0.3-0.4-0.5-0.5-0.1-0.7 0.5-0.4-0.7 0.3-0.9-0.3-1 0.7-1.6 0.3-0.3 0.6-0.2 0.1-1.5-0.3-0.7 0.1-1.6-0.5-0.7-0.8-0.4 0-0.8-0.9 0 0 0.9-0.2 0.6-0.6 0.4-0.4 0.7-0.4 0-0.7 0.5-1.4-1 0.7-1.6-0.7-0.3-0.8-0.1-0.6-0.4-0.7-0.5-0.2-0.4-0.9-0.9 0.2-1.1 0.7-1.3 0.6-0.5 0.2-0.8 0.8 0.2 0.3-0.3 0-0.7 0.7 0 0.6-0.9-0.6-0.3-0.8 0.7-0.5-0.1-1-0.4-0.4-0.6-0.7-0.2 0.5-0.8 0.1-1.1-0.4-1.1-1.2 0.9-0.8 0-0.2-0.6-0.9 1 0.3 0.9-0.8 0.8 0.7 0.6-0.3 0.5-1.5 0.9-0.6-0.7-0.9-0.5-1 0.1-0.4 0.2-2.3-0.1-0.7-0.9-0.4-0.9 0-1.2-0.9 0.1-1.9-0.5-0.4-0.4-0.9-0.5-1.1 1.6 0.2 1-0.6 0.4-0.6-0.1-0.3-0.9-0.5-0.7 0.3-1-0.1-0.3-0.6-0.1-1 0.2-0.8-1.6-0.6-0.1-0.1 0.4-1 0.1-0.1-0.5-0.5 0.2-0.6-0.9 0.7-0.6 0.7 0 0.3 0.4 0.8-0.2 0.3-0.7-0.3-0.2-0.7 0.4-1.1-0.4-0.7 0.1-0.6-0.4-0.3 0.4-0.9 0.3-0.6-0.2-0.3-0.5-1 0-0.8-0.6 0.2-0.7-0.2-0.6-0.9-0.3-0.3 0.3-1.3 0.6 0 0.6-0.7 0.6-0.9 0.3-0.5-0.6 0.2-0.5-0.4-0.2-0.5 0.1-0.6-0.2-0.2 0.7 0.2 0.8-0.7 0.2-0.9-0.2 0.1-0.7-0.1-0.4-0.8-0.3-1 0.5-0.8 0-1.5 0.6-0.5-0.6-0.7-0.5-0.6 0.2-0.4-0.4-0.8 0.2-0.4-0.3-1.4 0.2-0.3 0.3-0.7 0.1-0.8 0.6-1.1 0.6-0.4-0.2-0.3-0.8-0.8 0.3-0.8 1.1-1-0.4-0.5-0.2-1-0.4-0.9-0.3-1.5-0.6-0.3-0.3-0.9-1-1.1-2.6-0.8-1.6-0.7-1.1-0.6-0.8-0.3-0.6-0.6-1.8-0.3-1.5-0.5-3-1.1-1.2-1.2-1.2-1.4-1.6-0.4-1.4-0.6-0.7-1.4-1.3 0.2-0.9 0-0.9 0.2-2.2-0.3-0.1 0-2 0.1-2.2-0.4-1.1-0.5-0.3-1.2 0.1-1 0.5-0.9 0.3-1.2 0.1-1.8 0.1-0.7 0.2-0.6-0.1-2.5-0.9-0.4-0.3-0.3-1.1-0.4-0.7-1.1-1.2-0.7-0.4-0.4-0.8-1.6-2.4-0.4-1.2 0-1-0.3-1.9 0.4-1.2 1.4-2.1 0.4-0.8 0.3-1.6-0.2-1 0.1-0.9 0.3-1.3-0.1-2.5 0.2-1.7-0.4-1.9-0.5-0.6-1.2-0.6-1.1-0.3-1.1 0-2.9 0.5-1.8 0-1.1-0.3-1.2-0.6-1.3-1.3-5.5-2.5-0.4-0.4-0.6-1.7 0.4-2.9 0.1-1.4 0.3-2.2 0.6-1.6 0.8-2.2 0.6-1.2 2.1-2.2 4.1-3.4 1.3-1.3 1.3-1.7 0.7-1.4 2.2-1.6 0.3-0.4 2.2-6.1 1.4-2.1 1.4-1.6 2-1.4 0.6-0.5 0.9-1.1 0.8-0.8 1.8-0.4 1.3-0.4 1.4 0 0.9 0.4 2.7 2.8 0.3 0.5 0 1.4 0.2 0.9 1.6 3 0.5 0.8 1.7 0.4 1.8 0.2 0.6-0.1 3.5-1.7 4.8-2.1 1.7-0.6 3.8-0.7 3.3 0 1.5-0.1 2 0 1.1-0.4 1.8-0.9 2.6-0.9 1-0.5 0.4-2.2 0-0.7 0.5-2.2 1-1.4 0.8-1.3 0.7-0.6 2.9-2.4 0.8-1 0.8-0.7 0.7-1.3 2.5-8.2 0.7-1.1 1.6-2 0.5-0.5 1.2-0.4 2-1.2 1.8-1.1 1.8-1.2 2.4-1.4 5.2-2.2 0.4-0.3 1.5-3.7 2.2-2.7 1.6-3 1.5-3.2 0.8-1.6 1.4-2.4 0.7-2.4 0.4-1.7 0.7-2.6 0.5-2.1 0.2-0.5 0.6-2.3 0.1-0.4 0.6-0.4 5.5-2.3 1.1-0.3 1.5-0.5 1.3-0.3 1.1-0.4 1.2-1.2 2.3-1.9 1.2-0.8-0.2 1.6 0.1 0.5-1.2 1.9-0.6 0.4-0.5 1.8 0.3 0.9 4.9 0 5 0.4 1 0 3.2 0.3 0.6-0.1 1.1 0.2 1.4 0-0.4 1.1 0.8 0.2 0.6 1.2-0.6 0.8-1.1 0.4-0.6 0.8-0.2 0.4 0.2 1.4 1.5 0.1 0.3-0.4 0.9 0 0.6-0.4 0.4 0.4-0.1 1-0.7 2.1 0.2 0.6-0.2 0.3-0.2 1.3 0.1 0.9 1 0.8 0.1 0.4-0.6 0.8-0.3 1.1-1.3-0.2-0.1 1.3 0.6 0 0.5 0.5 0.1 0.7 0.7 1-0.1 0.8 1.3-0.1 0.2-1.3 1.1 0.2 0.6-0.1 0.5 0.5 1.2-0.2 1-1.2 1.1-0.1 0.5 0.5 0.5 0 1.1 0.7 0.2 0.8 0.4 0.6-0.3 0.4 0.4 0.7 0.6 0.1 0.4 0.3 0.9-0.7 0.5 0.2 0.3 0.7 0.7 1 0.8 0.2 0.2-0.5 0.9-0.1 0.5-0.6 0.4-0.1 0.4 0.7 0.8 0.3 0.3-0.5 1-0.1 0.2-0.6 1.1-0.6 0.2 0.5-0.1 0.8-0.2 0.5 0.8 0.3 0.2-0.7 0.8-0.5 0.4 0.1 0.1 0.7-0.3 0.3 0.4 1.3-0.4 0.5-0.5 0.1-0.2 0.8 0.9 0.5-0.4 0.5 0 1.3 1.4 0.2 0.2 0.7-0.1 0.8 1-0.1 1.1 0.2 0.1 1.2-0.3 0.4-0.2 0.6-0.8 0.1 0 0.4 0.6 0.9-0.1 1.2 0.7 0.7-0.4 1.5 0.5 0.5 0.4 1.2 0.3 2.7 0.2 0.1 0.2 0.9 0.6 0 0.2 0.3 0.7 0 0.2 0.5 0.3 1.4 1 0.4 0 0.4 0.7 0.6 1.2 0.4 0 0.5 1.2 0.4 0.2 0.6-0.6 0.6 0.2 0.4 0.4 0.1 0.5-0.3 0.7 0.1 0.1 0.4 1.1 0.2 1.3 0.7 0.2 0.7 0.8 0.2 0.8 1.4 0.9 0.4-0.3 0.9 0.1 0.3 1.1 0.6-0.2 0.6 0.6 0.2 0.2 0.8 0.5 0.5-0.3 0.4-0.5 0 0.1-0.8-1.1-0.1-0.9 0.7-0.1 0.7-0.4 0-0.9 0.7-0.2 0.3 0.6 0.3 0.5 0 0.7 0.8 0.4-0.7 0.5 0.4-0.5 0.4-0.2 0.6-0.9 0-0.1 0.6-0.4 0.5-0.1 0.4 0.9 0.1-0.5 0.7-0.1 0.8-0.6-0.1-0.5 0.2 0.1 0.5 0.8-0.1 0.5 0.4 0 1.3 0.9 0.1 1.1 0.5 0.3-0.3 0.6 0.2 0.2-0.6 0.9 0.5 0.2 0.6 1.2 0.8 0.9-1.2-0.4-0.5 0-0.6 0.2-0.5-0.8-0.4 0.3-1.9-0.7-0.6 0.5-0.9 0.8-0.3-0.7-0.6 0-0.3 1.5 0.1 0.5-0.5 0.6 0.2 0.5 0.5 0 0.6 0.7 0.3 0.6-0.3 0.4-1.1-0.4-0.2-0.8-1.2 0.6 0.1 0.7-0.6-0.9-0.7-1.2-0.6 0-0.3 0.8-0.2 0.8 0.2 0.4 0.4 0.2 0.7 0.5 0.2 0.5-0.3 0.9 0 0.2-0.2 1 0.1 0.5 0.5 0.2 0.8-1.1-0.1-0.3 0.6 0.6 0.2 0.8 0.6-0.4 0.2-0.7-0.1-0.1 0.5 1 0 0.6 0.3 0.7-0.1 0 0.7-0.2 1.2 0.4 0.2 1.5-1.2 1 0 0.6-0.3-0.2-0.7-0.1-1.5 0.9-0.2 0.8-1.1 0.8 0.1 0.4-0.5 1-0.3 0.2-0.5-0.2-0.7 0.4-0.2 0.8-0.7 0.8 0 0.1 0.4 0.9 0.2-0.4 0.4 1.5 1.3 0.6 0.2-0.4 2.2-0.4 0.9-0.4 1.4 0.2 0.6-0.2 1.7 0.6 0.2-0.1 0.7-0.3 0 0.1 1.2-0.1 0.7-0.5-0.1-0.2 0.5 0.2 0.4-0.3 0.7-0.2 2 0.7 0.6-0.6 0.7 0.5 0.7 0.6-0.6 1 0.6 0.3-1.6 0.4-1.1 1-0.2 0.6 0.7 0.7-0.3-0.2-0.7-0.6-0.1-0.7-0.8 0.4-1 0.9 0.3 0.8 0.8 1.3-0.1 0-0.7 0.7-0.2 0.4 0.6 0.9 0 0.4 0.4 1.1-0.7 0.8 0.6-0.1 1 0.2 0.6-0.3 0.2 0.1 0.5 0.9 0.2 0.2 1.7-0.8 1.3 0.4 0.4 0.6 0.1-0.5 0.7 0 1 0.3 0.4 0.9 0.2 0.5 0.5 0 0.7 1 0.6-0.4 1.1 0.5 0.8 0.9 0.5 0.9 0.1 1.2 1.2 0.9 0.5 0.5-0.4 0.6 0-0.1 0.7-0.6 0.5 0.5 0.3-0.1 0.5 0.5 0.3 0.6 0.8-0.1 0.7 0.9 0.4-0.5 0.8-0.7 0.2-0.4-0.2-0.3 0.7-0.3 0.4 0.1 0.3-1.5 0.5-0.7 0.8 0.3 0.7 0.5-0.5 0.5 0.1-0.2 0.9 1.1 0.6 1.6 0.2 0.4-0.8 0.9 1.5 0.5 0 0-0.8 0.4-0.2 0.2 0.6-0.2 0.8-0.6-0.1-0.6 0.4-1.4 0.3-1.7 1.1-2.7 0.9-0.7 0.4-0.1 0.4-0.8 0.3-0.1 0.7 0.6 0.8-0.3 1 0.6 0.1 0.3 0.4-0.4 0.7 0.9-0.2 0.3-0.4-0.3-0.7 0.5-1.8 0.4 0.1 0.2 0.7 1.2-0.1 0.2-0.2 1-0.1 0.4-0.4 0.9-0.3 0.4-0.5 1.2-0.2-0.1-0.7 0.4-0.6 0.6-0.1 0.5-0.4 0.6 0.5 0.5-0.2 1.8 0.7 0.5 0.5 0.5-0.8 0.6 0.1 0.3 0.4 0.6-0.4 0.3 0.5 0.5-0.5 0.6 0.1 0.6 1.1 0.2-0.3 0-1 0.5 0 0.7 0.4 0.4-0.2 0.3-0.6 0.1-0.8 0.6-0.1 1.4 0.3 1.2 0.4 0.8 0.1-0.4 1-0.6 0.5-0.6 0.2 0.2 1.2-1.4 0.3 0.5 0.8-0.1 0.3-0.8 0-0.7-0.3-0.7 0.4 0 0.5 0.5 0.7-0.6 0.3-0.1 1.6-0.3 0.3-0.7-0.4-1.6-0.4-0.6 0.8-0.8 0.5-1-0.2-0.4 0.4 0 0.7-0.3 0.4-1 0.1-0.6 0.5 0.1 0.8-0.3 0.6-0.4 0.1-0.9-0.1-0.7 0.3-0.4 0.9-0.8 0.4-0.7-0.3-1.2 0.9-0.8 0.8-1.3 0.5-0.7 0.7-1.4 0-1.3 0.3 0.4 0.8-0.2 0.5-0.9-0.1-0.4 0.1-0.5-0.2-1.4 0.7-0.2 1-1.2 1.2-0.8 0.4-1.1 0.8-0.8-0.3-1 0.2-0.5 0.2-0.4 1.1-0.3 0.3-0.9 0-0.8 0.3-0.5 0.5-0.3 0.7-1.5 1-1.4 0.4-0.5 1.1-1.1 0.8 0.3 0.6-0.6 0.8 0 0.4-0.7 0.8-0.9 0 0 0.7-0.8 0.6-0.5 0-1.1-0.3-0.9 0.2-0.2 0.9-1 0-0.3 0.2-0.5 0.9-0.5 0.4-0.5 0.8-0.2 1 0.2 0.7-0.1 0.4-0.7 0.1-0.5 0.3-0.2 0.7 0.9 0.7-0.3 0.7 0.5 0.4 0 0.8-0.2 0.9 0.4 0.9-0.1 0.6 0.5 0.6 0.6 1.1 0.1 0.9 0.7 0.4 0.4 1.3 0.6 0.4 0.3-0.2 1.2 1.1 0.9 0.1 0.7-0.2 0.8 0.4 0.1 0.6 1.9-0.5 1.4 0.3 1 0.7 0 0.6 0.6 0 0.2-0.6 0.9-0.1 0.9 0 0.4-0.7 0.7 0 0.3-0.4 1.1 0.1 1 0.7 1.1 0 0.2-0.6 0.5 0 0.1-1.3 1.1-0.8 0.6-0.7 0.6-0.4 1.5 0.7-0.4 0.8 0.3 0.6-0.3 0.9 0.5 0.2 0.3 0.8-0.2 0.6-0.5 0.4 0.4 0.7 0.4 0.1 0.8 0.6 0.3 1-0.8 0.1-0.1 2-1 0.8-0.5 0-0.8 0.4-0.5-0.6-0.6-0.5-1.1 0.3-0.7-0.2-0.7 0.1-0.3 0.8-0.9-0.1-0.3 0.6-1 0.4-2.6-0.6-0.4 0.6-0.4 0.3-1.5 0.4-0.5 0-0.3 0.7-0.1 1.2 0.1 0.5 1.5 1.3-0.3 0.7 0.9 0.5-0.6 0.7-0.8 0.3-1.6-0.1-1 0.5 0.4 0.7 0.8 1 0 0.5 0.4 0.1 0.7-0.1 0.5 0.2 0.5-0.1 0.7-0.4 0.4 0.1 0.3 0.8 0.5 0.5 0.8 0 0.4 0.4 0.1 0.6 0.6 1.2-0.1 1.5 0.2 0.9-0.4 1.1-0.5-0.1-0.2 0.9-0.9 0.8-0.9 0.4-0.5-0.2-0.7-0.6 0.1-1.5-0.5-0.3-0.3 0.6-0.4 0-0.2-0.7-0.6 0-0.8 0.5 0.5 1.1 0.3 0.3 0.2 0.5-0.3 0.8 0.2 0.2-0.2 0.9 0.2 0.5 0 0.7-0.3 0.2 0.2 1 0.4 0.4 0.4 1.3 1.1 1.2 0.1 0.3 0.7 0.7-0.3 0.3-0.5 0-0.4 1.7-0.7-0.3-0.5 0.1-0.8 0.4-0.7 0.1-0.3-0.2-0.6-1.1-0.4-0.2-0.7 0-0.2 0.3-0.5-0.3-0.8-0.7 0.4-1.2 0.4-0.4-0.3-1.1-0.4 0.4-1 0.3-0.7-0.1 0 0.7-1.2 0.8-0.2 0.4 0.4 0.6-0.7 0.4-0.8 0.1-0.4-0.4 0-0.7-0.3-0.3-1-0.5-0.2 0.3-0.8-0.3-0.4 0.5-1.6-1.1-0.9-0.1-0.8 0.4-0.4 0.6-0.8-0.3-0.6 0.1-0.5-0.3 0-1.1-0.3-0.4 0.3-0.8-0.6-0.6-0.3 0.5-0.1 0.5-0.5 0.2-0.2 0.3 0.3 1.1-0.1 0.3-0.8 0.9 0 0.8 0.2 0.3 0.2 1.1-0.2 0.4 0.1 0.7-0.8-0.1-0.1 0.2-1.6 0.5-0.4 0.7-1 0.6-0.8 0.2 0 0.8 0.5 0.7-0.1 1.2-0.8 0.3-0.4 0.7-0.3-0.1-1.2 0.6-0.7-0.3-1.3 0.7-0.7 0.5-0.5-0.1 0-0.7-0.9-0.6-0.7-0.1-0.1 0.8 0.8 0.4-0.1 1.1-0.3 0.3-0.6-0.1 0.2 1-0.3 0.4-1-0.8-0.9-0.2-1 0.2-0.4-0.5 0.1-0.5-0.2-0.7-0.7-0.6-0.9-0.4-0.5-0.6-0.8-0.3 0.2-1.8 0.7-0.7 0.7-1.3 0.4 0.5 1.1 0.4 0 0.5 1.8 0 0.1-0.5 0.8-0.5 0.5 0.5-0.1 0.6 0.5 0.8 0.9-0.3 0.1-0.4 0.6-0.1 0.5-1.2 0-0.7 1.4-0.3 0-1.1-0.5 0.1-0.6-0.2-0.3-0.7-1-0.2 0.9-2.4 0.8-0.3 0.2-0.9 0-1.2-0.4-0.4-0.9 0.1-0.7-1.1 0-1.3-0.1-0.4 0.6-0.2 0-0.5 0.8-0.9 0.1-0.5 0.7 0.3-0.1 0.8 0.5 0.4 0.9 0 1.1-0.7 0.2-0.3 0-1.1-0.1-0.4 0.5-0.9-0.5-0.4 0.1-0.8-0.7-0.2-0.3-0.7-0.6-0.2-0.2-0.5 0-1.2-0.4 0 0.3-1.4-0.1-0.4-0.9-0.8-0.5-0.3-1.2 0.2-1.7 0.9-0.6 0.8-1.2 0.4-0.9-1-0.8 0.3-0.5-0.2-1.4 0.7-0.8 0.1-2.5-0.5-0.3-0.2-1.3-0.1-1-0.4-0.5 0.1-0.6-0.2-0.3 0.4-0.6-1.1-0.1-0.9 0.7-0.9 0.8-0.1 0.2-0.5-0.7-0.3-0.7-1.1 1.3-0.3-0.2 1 1.2 0.4 0.4 1 0.4 0.1 0.4-0.6 0.4 0 2-1 0.2-0.8-0.5 0-0.9 0.4-1.3-0.3-0.4 0.6-1.4-0.6 0.2-0.8 0.6-0.3-0.6-1.1 0.5-0.5 0.1 0.8 0.8 1.3 0.2-0.9 0.3-0.8-0.4-0.5-0.1-0.8 0.9-0.5 0-0.5-1.1-0.2-3 0.4-0.8-0.6-0.4 0.3-0.1 0.5 0.4 0.5-0.1 0.6-0.7 0.1-0.7 0.7 0.1 2.3-0.8 0.3-0.4-0.3-0.8 0.9-0.9-0.5-1.8-0.1 0.1-0.5-1-0.1 0-0.9-0.3-0.3-1 0-0.1-0.8-0.2-0.3-0.6 0.2-0.2 0.8 0 1.3 0.8 1.4 0.1 1.2 0.5 0 0.2 0.3 0.6 0.1 1.8 0.2 0.7-0.2 0.4 0.2 0.3 0.6-0.1 0.6-0.7 0-0.1 0.6 0.3 0.7-1 0.3-0.6 1.1-1.1 0.2-0.8-0.4-0.2-0.6-0.5-0.6-0.8-1.7-0.2-0.9-0.3 0 0.1 1.2-0.6 0.4 0.2 0.5-0.3 1.2 1 0 0.1 0.4-0.6 0.5-0.3 0.6 0.1 0.8-1.1 0.4 0.2 1-0.2 0.8-0.6 0.1-0.3 0.3 1.1 1 0.6 0.2 0.4-0.3 0.6 0 1.2 1.3-1.3 1.2-0.2 0.7-0.5 0.6 0 1.5-0.8 0.6 0 0.6 0.5 0.2 1.1-0.2 1.1 0.2 0.6-0.2 0.5 0.5 0.3 0.8-0.7 0.5 0.6 1.3 0.7 0.5 0.3 1.1 0.6 0.3 0.1 0.8 0.4 0.4 0.1 0.9 0.3 0.3-0.2 0.5-0.4 0.3-0.2 0.9-0.6 0.4-0.8 1.4-0.2 1.4 0.3 0.6-0.2 1.4 0.5 0.1 0.3 0.9-0.2 0.3 0.3 0.7-0.5 0.4 0 0.7-0.4 0.6 0.4 0.2 0.4 1.2-0.9 0.2-0.5 0.5-0.5 0.9-0.5 0.6-1.3 0.7-0.2-0.4-0.6 0.1-0.3 0.5-0.6 0.2-0.2 0.6-0.6-0.2-1.2 0.7-0.3 0.5-1.2 0.1-0.4 1-0.7 0.3 0 1.1-0.4 0.5-0.4 0 0 0.8-0.3 0.5 0.4 1 0.5-0.3 0.6 0.4 0.7 0 0.5 0.6 0.6 0.1 0.5-0.4 0.8 0.1 0.6 0.9-0.8 0.4 0.7 0.2 0.9-0.3-0.2 0.6-0.8 0.5-1.3-0.2-0.4 0.6-0.8 0.5-0.4 0.6-1.8 0.3 0.1 0.4-0.3 0.6-0.7 0.3-1.2 0.1-0.6-0.2-0.3-0.4-1.2-0.2-0.8 0.7-0.4 0.6-0.7 0.2z" id="rajasthan" name="Rajasthan">
    </path>
    <circle class="8.270456422425491|69.64751778317537" cx="139.9" cy="912.7" id="0">
    </circle>
    <circle class="20.400061359468964|84.26020775342162" cx="540" cy="569.2" id="1">
    </circle>
    <circle class="35.5620675307733|95.95035972961863" cx="860.1" cy="97" id="2">
    </circle>
    <circle class="Rajasthan" cx="256.7" cy="375.8" id="rajasthan">
    </circle>
</svg>