<svg baseprofile="tiny" fill="orange" height="1000" stroke="#ffffff" stroke-linecap="round" stroke-linejoin="round" stroke-width=".5" version="1.2" viewbox="0 0 1000 1000" width="1000" xmlns="http://www.w3.org/2000/svg">
    <path d="M656 534l0.9 0.5 0 1.2-0.6 0-0.7-0.4 0.1-1 0.3-0.3z m9.2-0.2l1.2 0.4 0.4 0.4 0.2 0.8-1.2 0.1-0.5-0.3-0.2-0.5 0.1-0.9z m-2.9-0.9l0.3 0.8 0.5 0.3-0.2 0.3-0.2 0.5-0.7-0.2-0.2-0.3 0.1-1 0.4-0.4z m-5.2 0l0.6 0.2 0.7 0.6 0.1 0.6-0.3 0.5-0.7 0.3-0.4-0.8-0.7-0.3 0.3-0.8 0.4-0.3z m6.4-0.5l0.1 1 0.6 0.8-0.2 0.4-1.1 0 0-0.4 0.2-0.1 0-0.1-0.1-0.1-0.4-0.2-0.2-0.7 0.1-0.3 1-0.3z m5.3 0.4l0.7-0.1 0.1 0.5-0.2 0.4-0.8-0.1-0.5-0.9 0.4-0.9 0.3 1.1z m-10.6-1.5l0.2 1 0.4 0.5-0.2 0.7-0.9-0.5-0.1-0.4 0.4-0.5 0.2-0.8z m0.4-0.1l0.4 0.4-0.5 0.7-0.2-0.8 0.3-0.3z m10.7-0.3l0.2 0.1 0.1 0.9-0.2 0.2 0 0.3 0.2 0.2 0.8-0.2 0 0.7 0.4 0.2-0.2 0.6-0.8 0-0.2-1.1-0.1-0.2-0.7 0.1 0-0.6-0.4-1.1 0.6 0.1 0.3-0.2z m-4.8 0l0 1.2-0.3 0.3-0.5-0.3-0.5 0-0.3-0.3-0.5-0.2 0.8-0.1 0.1-0.2 1.2-0.4z m-13.6 0l0.5 0 0.6 0.8-0.1 0.5 0.2 0.3-0.5 0.9-0.8 0.3 0-0.6 0.3-1-0.2-1.2z m3.9-0.1l0.5 1-0.6 1.6-0.8-0.9 0-1.1 0.5-0.5 0.4-0.1z m6.7-0.1l0.1 0.7 1.1 1-0.5 0.5-1-1.4 0.3-0.8z m-13.5-0.3l0.3 0.6-0.5 0.2 0 0.5 0.5 0.2 0.2 0 0.2 0.9-0.7 0.9-0.3-0.7-0.3-1.6 0.2-0.6 0.4-0.4z m23.4 0l0.4 1 0.5 0.6 0 0.9-0.7 0.5-0.5 0-0.6-0.7 0-1.3-0.2-0.6 0.5-0.3 0.6-0.1z m-2.2-0.1l0.4 0.1 0.7 0.7 0.1 0.3-0.1 0.8-0.3 0.3-0.5 0 0.2-0.6-0.2-1-0.3-0.6z m-11.9-0.3l0.7 0.1 0.4 0.6 0 0.4-0.5 0.2 0 0.8-0.7 0.7-0.3-0.5 0-0.6-0.3-1 0.7-0.7z m9.3-0.3l0.8 0.6 0.1 0.4 0.7 0.7-0.6 1.6-1-0.8-0.3-1 0-0.7 0.3-0.8z m-12.9 0.4l0.4 0.9-0.4 0.3 0 0.9 0.5 1-0.5 0.2-0.3 0.7-0.4-0.5 0-1-0.2-1 0.5-0.5 0.4-1z m-5.3-0.9l1.4 0.2-0.2 0.7 0.2 0.1 1.1 1.7-0.5 1-0.1 1.2 0.5 0.5-0.4 0.5-0.6 0.1-0.6-0.1-0.2-0.4 0.1-0.5-0.8-0.8 0.5-0.4 0-1-0.2-0.2-0.5 0-0.3-0.2 0.1-0.3 0.5-0.3-0.2-0.5 0.1-0.9 0.1-0.4z m19.4 0l0.5 0.2 0.5 0.2 0.2 0.3 0.1 0.2-0.1 0.4 0 0.6-0.6-0.1-0.7-0.6 0.2-0.4-0.1-0.8z m-15.4 0l-0.2 0.5 0 0.4 0.2 0.3 0.9 0.3-0.4 0.3-0.7 0.4-0.6-0.6 0.3-0.5-0.1-0.8 0.2-0.3 0.4 0z m17.5-0.1l0.6 0.3 0.8 0.8-1 0.3-0.1-0.4-0.4-0.5 0.1-0.5z m-4.7 0l0.8 0.1-0.6 1.4 0 0.8 0.5 1.3-0.5 0.7-0.7-0.3-0.2-0.3 0.4-0.9-0.1-0.9-0.4-0.4-0.5 0.2-0.1-0.7 0.3-0.5 0.6 0 0.5-0.5z m-12.3 0.1l-0.1 0.8-0.5 0 0-0.3 0.3-0.5 0.3 0z m5.4-0.4l0.1 0.4 0.1 0.3 0.8 0.4 0 0.4-0.7 0.2-0.3-0.2 0.1-0.6-0.4-0.7 0.3-0.2z m-7.6 1.5l-0.2 0.6-0.5-0.7 0.2-0.7 0.4-0.4 0.2 1-0.1 0.2z m19.1-1.8l0 1.1 0.3 0.4-0.2 0.6-0.3-0.2-0.5-0.2 0.4-0.3-0.2-0.3-0.3 0.3-0.1-0.3-0.2-0.2 0.2-0.5 0.2 0 0.4-0.5 0.3 0.1z m-10.7-0.1l0.4 0.5 0.2 1-0.3 0-1-0.5 0.1-0.7 0.1-0.2 0.5-0.1z m-4.2 0l0.5 0-0.2 1.6-0.3 0.7-0.4 0.1-0.2 0.1-0.3-1.1 0-0.7 0.7-0.9 0.2 0.2z m7.1-0.5l0.3 0.8 0 0.1 0.2-0.1 0 0.1 0.3 0.1 0.4 0.4-0.2 0.8 0.6 0.3-0.5 0.5 0.2 0.3-0.2 0.3-0.3 0-0.3-0.1-0.1 0.2 0.7 0.5-0.2 0.2-1-1-0.5-1.5 0.5-1.3 0.1-0.6z m-4.7-0.1l0.7 0.5-0.2 1 0.3 0.7-0.9-0.1-0.4 0.6-0.6-0.9 0-0.7 0.7-0.9 0.4-0.2z m-3.4 0l0.2 0 0 0.2 0.1 0.1 0.3 0-0.1 0.3-0.4 0.6 0 1.5-0.6-0.7 0-0.3-0.5-0.8 0.3-0.3 0.2-0.1 0.3-0.3 0.1-0.1 0.1-0.1z m15.9 0l0.4 0-0.2 0.8-0.5-0.2 0.3-0.6z m-6.9 0.4l-0.1 0.7-0.3-0.1 0-0.1-0.2 0 0-0.4 0.1-0.1 0.2-0.1 0.3-0.4 0 0.5z m2.2-0.2l-0.2 0.7 0.2 0.4-0.5 0.4-0.6 0.1-0.1-0.6 1-1.5 0.2 0.5z m-1.1 1.7l-0.3 0.4-0.6 0 0.2-0.8-0.4-0.3 0.4-0.4 0.6-1.2 0.2 0.4-0.2 1.1 0.1 0.8z m3.5-2.4l0.1 0.1 0.4 0 0.1 0.2-0.3 0.4 0 0.1-0.3 0.3 0.2 0.1-0.5 1-0.3-0.1 0.2-0.6-0.5-0.8 0-0.2 0.3-0.1 0.2-0.2 0.4-0.2z m-11.8-0.2l0.4 0.6-0.4 0.5-0.7-0.1-0.1-0.5 0.8-0.5z m12.5-0.4l0.1 0.2 0.2 0.5 0.6 0-0.1 0.6-0.5-0.1-0.4 0.5 0.3 0.8-0.8-0.4 0.1-0.3-0.1-0.2 0.2-0.2 0.2-0.4 0.1-0.1-0.1-0.2-0.2 0-0.1-0.3 0.2-0.1 0.1-0.2 0.2-0.1z m-9.6-0.1l0.7 0.6-0.3 0.5 0.2 0.5-0.8-0.1-0.2-0.5 0.1-0.6 0.3-0.4z m-7.1-0.3l0.5 0.2 0 1 0.3 0.7 0.5 0.3-0.1 0.5-0.5 0.1-0.4 0.2-0.1 0.3 0.1 0.8-0.3 0.3-0.7-0.2 0.1-0.3-0.2-0.9-0.6-0.9-0.5-0.1-0.1-0.4 0.2-0.2 1.1-0.5 0.2-0.4-0.1-0.3 0.1-0.1 0.5-0.1z m14.3-0.1l0 0.2 0.2 0.1 0.4 0.1-0.1 0.2 0.2 0.5 0 0.6 0.5 0.8-0.2 0.5 0 0.3 0.2 0.2 0.6 0.1-0.2 0.4-0.9-0.6-0.1-0.6-0.4-0.2-0.7-0.1 0.1-1 0-1 0.4-0.5z m-19.7-0.3l0.6 1.3 0.3 0.4-0.1 0.5 0.2 1 0 0.6-0.5 1.6 0 1.1-0.5 0.7-1.2 0-1.4-0.5-0.1-0.8 0.2-1.3 0.5-0.5 0.3-1.3 1.3-2.5 0.4-0.3z m17.9-0.1l0.1 0.2-0.2 0.1 0.1 0.1 0.3-0.2 0.1 0.1 0.7 0.1-0.2 1.2-0.8 0.3-0.2-0.3-0.5-0.2 0.3-1 0.2-0.3 0.1-0.1z m5.2-0.4l1 0.4 0.4 0.5-0.1 1-0.2 0.3-0.7 0.2-0.2 0.7-0.4 0.3-0.3-0.2-0.5 0 0.2-0.5 0.5 0 0.2-0.1 0.1-0.4-0.2-0.3-0.4 0-0.2-0.4 0.8-0.8 0-0.7z m-9.8-0.2l0.2 0.1 0 0.3 0.2 0.2-0.1 0.2 0.4 0 0.2 0.1-0.1 1-0.3 1.5-0.5-0.3-0.3-0.7 0.3-0.2-0.4-0.7-0.3-0.2 0.2-0.6 0.5-0.7z m5.4-0.1l0.6 0.4-0.3 0.7-0.6-0.1 0.3-1z m-7 0.1l0.4 0.4-0.4 1.6-0.5 0.1-0.4-0.6 0.3-0.7 0.3-0.3-0.1-0.7 0.4 0.2z m-3.2-0.2l0.4 0.3 0.6 0.3 0.2 1-1 0.9-0.3 0.5-0.2 0.1-0.1 0-0.1-0.3-0.1-0.1-0.2 0.1-0.4 0.4-0.3-1.1 0.3-1.1 0.4-0.5 0.1-0.4 0.4 0 0.3-0.1z m7.5-0.1l0.2 0.3 0.6 0.1 0.2 0.5 0.5 0.4-0.3 0.9 0.1 0.2 0.3 0.1-0.4 1.1-0.3-0.4 0-0.4-0.1-0.1-0.2 0.3-0.1 0.2-0.3 0.2-0.2-0.4-0.3-0.1-0.3-0.9 0-0.6 0.6-1.4z m-5.9-0.1l0.1 0.1-0.5 0.6-0.3-0.3 0.3-0.4 0.4 0z m3.7-0.3l0.8 0.3-0.4 0.9-0.4 0.2-0.3-0.3 0-0.3-0.1-0.2 0.4-0.6z m-13.8-0.1l0.3 0.3-0.5 0.5-0.3-0.4 0.5-0.4z m19.2 0.2l0.6 0.2 0.8-0.1 0.7-0.4 1.6 0.9-0.2 1-0.4 0.7-0.1 0-0.2-0.4 0 0.2-0.2 0.1 0 0.2-0.2 0.1-0.3 0.2-0.3 0.2-0.3 0.2-0.3-0.2 0.1-0.3-0.2-0.4 0-0.2-0.1-0.1-0.3 0-0.4-1.2-0.3-0.7z m-3.1-0.4l0.2 0.4 0.6-0.2 0.6 0 0.5 0.3 0.2-0.1 0.4 0.5-0.5 0.7-0.1 0.3-0.2 0 0.2-0.1 0-0.2-0.1 0-0.1 0-0.2 0.3-0.2-0.3-0.4-0.1-0.2-0.4-0.2-0.2-0.3 0.1-0.4-0.6 0.2-0.4z m0.6-1.4l0.1 0.6 1.4 1-0.3 0.2-0.8-0.3-0.7 0.1-0.3-0.5 0-1.1 0.6 0z m-2.3-1.2l0.4 0 1.1 0.6-0.6 0.9-0.1 0.4-0.3 0.4-0.6-0.3-0.7 0-0.1-0.4 0.2-0.9 0.7-0.7z m-14.2-0.2l-0.6 1.2-0.7 1.1-0.2 0.5-0.9 0.6-0.3-0.1 0.3-1.3 0.4-0.9 0.7-0.6 1.3-0.5z m18.3 0.2l1 0.1 0.5-0.2 0.3 0.3 0.6 0 0.2 1.3 0 1.2-0.2 0.2-1.2 0.1-0.8-0.6-1.4-0.1-0.6-0.5-0.1-0.7 0.3-0.4 0-0.5 0.5 0 0.6-0.5 0.3 0.3z m-1.3-0.9l0.3 0 0.1 0.9-0.5 0-0.2-0.9 0.3 0z m3.8 0.2l0 0.8-0.7 0.1-0.6-0.9 1.3 0z m3.1-0.2l0.7 0.1 0.7 1 0.3 0.8-0.4 1.5-0.9 0.3-0.8-0.7 0.5-0.8-1.2-0.5 0-0.4-0.2-0.3 0.5-0.9 0.4-0.3 0.4 0.2z m-5.6-0.3l0.5 0.3 0.1 0.7-0.6 0.1-0.1-0.3-0.3 0.1-0.4-0.2 0.3-0.5 0.5-0.2z m1.6-0.5l0 0.5 0.3 0.5-0.5-0.1-0.3 0.1-0.9-0.5 0.3-0.3 0.2 0 0.5-0.2 0.4 0z m0.9-0.2l-0.3 0.7-0.5-0.1-0.1-0.7 0.9 0.1z m-2.7 0l0.1 0.6-0.7 0.5-0.9-0.3 0.2-0.6 0.6-0.7 0.5-0.2 0.2 0.7z m0.4-1.1l0.8 0.1 0.1 0.5 0.4 0.6-0.4 0.1-0.4 0.1-0.2-0.4-0.7 0.1-0.1-0.8 0.5-0.3z m1.3-1.3l0.6 0 0.5 1.1 0.5 0.6-0.2 0.5-1.2 0.1-0.5-0.4-0.2-0.6 0.5-1.3z m2.3-0.7l1 1.2-0.1 0.9-0.4 1-0.3 0.3-0.6 0.1-0.4 0.5 0.1 0.9 0.2 0.7 0.4 0-0.3-0.8 0.1-1 0.5 0 0.5 0.7-0.3 0.6 0.3 0.4-0.1 0.5 0.6 0.5 0 0.8 0.8 0.6-0.2 0.6-0.6-0.1-1.3-0.7-0.4-0.4-0.5-1.5 0.1-0.5-0.4-1.6 0.2-0.4 0.6-0.6-0.1-0.4-0.5-0.6-0.3-1.1 0.6 0.2 0.8-0.8z m1.4-0.3l0.3 0.1 0.1 0.9 0.2 0.5 0.7 0.5-0.5 1.1 0.2 1.2-0.5 0.1-0.5-0.3-1 0 0.4-0.5 0.5-1.6-0.1-0.5-0.5-0.6-0.1-0.7 0.8-0.2z m-8.4-0.3l1 0.5 0.9 0 0.1 0.4 0.6 0.3-0.6 0.7-0.9 0.4-0.3 0.6-0.9 0.7-0.1 0.8 1.2 0.7 0.3 0.5-0.6 0.4-0.5 0-1-0.5-0.1-0.8-0.3-0.9-0.4-0.7 0.5-1.7 0.7-0.6 0.4-0.8z m4.1 0.6l0.2-0.1 0-0.3 0.2-0.1 0.2 0.3 0.1 0.7-0.5 0 0 0.9-1.4 0.5-0.1 0.3-0.7 0.3-0.1 0.4-0.5 0.3-0.3 0.7-0.9-0.2-0.1-0.4 0.9-0.8 0.4-0.9 0.6-0.2 1-1.1 0.7 0.4 0.3-0.7z m2.4-1l0.6 0.1 0.2 0.8-0.4 0-0.4 0.5-0.6-0.5 0.2-0.4 0.1-0.7 0.3 0.2z m-3.3-1.8l0.4 0.6 0 0.7-0.7 0.4 0.2 0.6 0.5 0.3-0.3 0.5-0.7 0-0.6-0.5-0.5-0.1 0.1-0.9 0.6-0.6 0.3-0.2 0.2 0 0-0.1 0.1-0.4 0.4-0.3z m1.1-2.3l0.5 0.1 0.6 0.5 0.6 0.9 0.7 0.4-0.2 1 0.5 0.6 0.1 0.5-0.7-0.1-0.2-0.1-0.1 0.3-0.4 1.4-0.5 0.3-0.3-0.2-0.2-0.7-0.2-0.3-0.1 0-0.1 0.1-0.4-0.1-0.8-0.1-0.1-0.3 0.6-0.6 0-0.7-0.6-0.9 0.2-0.6-0.1-0.5 0.3-0.8 0.4 0 0.5-0.1z m3.7-0.6l0.1 0.5-0.2 1.2 0.5 0 0.6 0.8-0.6 0-0.1 0.5 1 0.8 0.2 0.9 0.6 0.7 0.2 0.3-0.3 0.7 0.4 0.6-0.3 0.5-0.3-0.5-0.8-0.6 0.1-0.6-0.2-0.6-0.9 0-0.5-0.2-0.2-0.8-0.4-0.4 0.2-0.7-0.1-0.6 0.1-1.9 0.3-0.1 0.1-0.7 0.5 0.2z m-3.4-0.5l0.6 0.8 0.4 0.2-0.2 0.6-0.8-0.8 0-0.8z m-2.2-3l0.3 0.1 0.2 0.3 0.3 0.2-0.3 0.6-0.5-1.2z m3.2-1.4l0.2 0.8-0.1 0.7-0.3 0.3 0.1 0.5-0.1 0.1 0.2 0.2 0.1 0.5 0.2 0.3-0.1 0.6 0.4 0.4-1 0.7-0.1-0.8-0.5-0.3-0.2-0.7 0.2-0.3 0-1.6 0.1-0.9 0.5-0.6 0.4 0.1z m0.6-0.5l1 0.4 0.2 0.5 0.4 1.5 0.4 0.5-0.1 0.8 0.2 0.3-0.8 0.5-0.1 1.2-0.4 0.5-0.2 1.3-0.3 0-0.7-0.7-0.3-1.3 0.6-0.4 0.2 0.2 0-0.6-0.5-0.3 0.4-0.4-0.5-0.5 0-0.3-0.2-0.3 0.1-0.3-0.1-0.2 0.3-0.3 0.2-0.6-0.2-0.4-0.3-1 0.7-0.1z m25.6-124.7l0.4 0.6-0.1 0.8 0.2 0.4-0.5 0.4 0.2 0.5 0.4 0.1 0 0.9-0.3 0.4-0.1 1.2-0.2 0.3-0.1 1 0.5 0.7 0 0.5-0.4 0.5-0.3 0.7 0.3 0.8-0.8 0.5-1.2 0.4 0 0.7-0.6 0.4-0.2-0.1 0.2 0.9-0.1 0.1-0.3-0.1-0.7-0.1 0.1-0.4-0.2 0.2 0.1 0.4 0.4 0.7-0.1 0.2-0.4 0-0.2-0.2-0.2 0.1 0.2 0.1 0.2 0.1 0 0.3 0.3 0.2-0.3 0.2-0.1 0.2-0.2 0.3-0.2-0.1 0 0.1 0.5 0.1 0.2-0.1 0 0.3-0.3 0 0.1 0.5-0.2 0.1-0.4-0.1 0.2 0.4 0.1 0.1 0.3-0.1 0.5 0.1-0.1 0-0.3 0.2-0.2 0.4-0.6-0.1 0.1-0.5-0.9-1.3-0.7-0.3 0.2 0.9-0.1 0.5-0.4 0.1-0.7 1.2 0.1 0.3 0.8 0.4 0.5 1.4-1.3 0.7-0.5 0.4-0.1 1.7-0.7 0.4-0.3-0.2 0-0.7-0.7-0.5-0.3 0.3-1.1 0.1-1-0.6 0.1-0.8-0.6 0.1-0.5 0.6-0.9 0.4-0.3-0.2-0.6-0.7-1.1-0.7-0.8-0.1-0.2-1.2-0.6-0.6-0.9 0-0.7-0.2-0.3-0.4-0.6-1.2 0.2-0.6 0-1.1-0.5-0.5-0.5-1.1 0.8-0.3-1-1.1-0.1-1.5-0.7-0.5-0.8 0.1-0.4-0.6-0.8-0.1-0.3-0.3 0-0.6-0.7-0.4-0.3 0.3-0.1 0.7-0.7 0.8-0.2 0.9 0.3 0.3 0.7 0.1 1.5 0.8-0.4 0.4 0.3 0.6 0.8-0.1-0.2 0.4 0.7 0.2 0.4-0.2 0 1-0.3 0.4-1.5-0.1-1.1 0.1-0.7-1.3-1.5-0.1-0.3 0.4 0 0.6 0.4 0.7-0.9 0-0.9-0.7-0.1-0.6 0.2-0.7-0.5-0.3-1.2 0.3 0-1-0.3-0.6-0.6 0.3-0.8 0 0-0.4-0.3-0.8 0-0.8-0.4 0.1-0.6-0.6-0.7-0.4-0.1-1-0.7 0 0 0.7-1.1-0.2 0.2-0.5-0.4-0.4-0.6 0.1 0-0.8-0.9-0.3-0.2-0.7-0.7-0.2-0.3 0.3-0.5-0.4-0.2-1-0.2-1.5-0.4 0.2-0.7 1-0.1 0.8-0.3 0.5-0.3 1.2-0.4 0.5-0.1 0.5 0.8 0.7 0.4-1 1 0.5 2 0.3-0.2 0.3 0.5 0.5-0.1 0.6 0.9 1.3-0.5 0.4-0.8 0.1-0.5-0.2-0.5 0.2-0.1 0.6-0.6 0-0.4 0.6-1 0.6-0.4 0.5 0 0.9 0.2 0.3-0.2 0.7-0.8 0.6-1 0.1-0.2 0.3-0.7-0.1-0.5 0.6-1.5 0.8-0.1 1.1-0.4 0.5 0.7 0.9-0.4 0.6 0.4 0.6-0.8 0.1-0.7 1-0.5 1.6-0.5 0.1-0.2 0.6 0.5 1 0.2 0.9-0.2 0.8 1.4 1.4 0.8-0.7 0.4 0.3 0.5-0.3 0.4 0.1 0.6-0.5 0.4 0.1 0 0.9 0.5 0.2 1.4 1.2 1.1 0.7-0.1 0.5 0.8 0.3 0 0.5 1.4 0.2 0 1.1-0.2 0.4 0.6 0.9 0.7 0 0 0.7 0.7 0.7 0.5 0.2 0.3 0.4 0.7 0.3 0.6 0.1 0.3-0.3 0.4 0.5 0.5 0 0.1 0.5 0.5 0.3 1 0 0.2-0.8 0.9-0.1 0.7 0.3 0.8-1 0.4 0.2 0.1 0.9 0.5 0 0.2 1-0.3 0.4 0.2 0.5-0.3 0.8 0.5 0.2 0 0.9 0.8 0.4 0.3 0.7 0.6-0.3 0.4 0.8 1 0 0.9 0.4 0.5-0.1 0 0.6-0.7 0-0.7 0.5-0.2 0.6 0.2 0.7-0.6 0 0.1 0.6-0.4 1-0.7-0.5-0.6 0-0.8-0.8-1.2 1.1-0.7-0.2-0.1-0.3-0.8 0.1-1-0.7-0.7 0-0.4 0.3-0.8-0.2-0.7 0-1 0.8-0.5 0-0.2-0.5-2-0.5-0.4 0.5-0.6 0 0.6 1.4-0.1 0.4-0.5 0.3 0.3 1.4-0.4 1 0.4 0.2-0.4 1-0.4 0-0.7 1.2 0.1 0.7-0.6 0.2-0.5-0.3-0.6 0.3-0.4 0.7 0.5 1-0.4 0.4-0.4-0.4-1.3-0.3-0.1-0.8-0.9-1.2-1.4 0.1-0.6 0.6-0.5 0.1 0 0.4 0.5 0.6-0.1 0.4 0.4 0.7-1.5 1.5-0.2 1-0.4-0.1-0.7 1 0.2 0.2-0.4 0.8-1.3 1.4 0.1 0.2 0.9 0.8 0.6 0.9 1 1.8 1.1 1.2 0.8 0.5 0.8 1 1.6 0.4 1.8 1.7 0.5 0.3 1.2 0.2 1.3-0.3 1.9 1.1 0.6 0.1 0.7 1.3 0.3-0.9 0.6 0.4 1 0 0.1 0.2 1.2-0.2 0.8 0.1 0.6 0.4 0.4 0.9-0.2 2.1-0.3 0-0.6 0.9 0.3 1.5-0.3 0 0 0.6 0.8 0-0.1 0.9 0.4 0.4 0 1.2 0.6 0.2 0.3 0.6-0.8 0.1-0.2 0.8 0.2 0.7-0.2 0.6-0.8 0 0 0.5-1 0.4-0.1 0.3-0.9 0.4-0.3-0.4-1.2 0.4 0.7 1.3-0.6 0.8-0.6 0.3 0.5 0.4-0.1 0.9-0.3 0.7 0.3 1.3-0.3 0.7 0.8 0.6-0.1 0.8 1.5-0.3 0.5 1.8 0.6 0.3 0.3 0.7 0.7 0.3 0.6 0.7 1-0.5 0.5 0.1 0.1 0.5-0.3 0.4 0 0.7-0.7 0-0.3 1.6 0.3 0.6-0.7 0.6 0 0.6 0.2 0.3-1.3 0.8 0.7 0.6-0.1 0.6 0.7 0.4 0.7 0 0.4 0.6 0.8 0-0.2-1 0.6 0.2 0.6 0.6 1.7-0.2 0.5 0.6 0.6 0.2 0.7-0.5 0.3 0.1-0.2 0.8-0.6 0-0.6 0.6-0.2 1-0.6 0.5-0.3 0.4-0.8 0.3-0.1 0.8 0.3 1.2-0.1 0.3-0.1 1.5-0.2 0.4 1 0.2 0 0.7 0.4 0.2-0.3 0.4 0.2 0.8 0.6 0.3 0.4-0.3 0.6 1.1-0.3 1.4-0.5 0.2-0.5 0.6 0 1 0.5 0.7 0.6 0.5-0.4 1-0.4 0.5 0 0.6 0.7 0.4-0.6 0.4 0.1 0.7-1.2 0.2-0.5 0.6-0.2 0-0.4 1 0.1 0.4-0.2 1.9-0.5-0.1-0.5-0.6-0.1-0.8-0.4-0.4-0.3-0.2-0.4-0.3-0.5-0.1-0.3 0.1-0.2 0.1-0.2-0.2-0.2-0.1-0.3-0.2-0.2-0.1-0.3 0.3 0.6-0.2 0.2 0.2 0.4 0.3 0.3-0.1 0.3 0 0.4 0.1 0.3 0.2-0.1 0.3 0.3 0.4 0.4 1.1 0.4 0.4 0.8 0 0.2 0.6-0.2 1.3-0.4 0.2-0.3-0.1-0.2 0.1-0.3 0.9 0.2 0.3-0.2 0.7 0 0.3-0.3 0.2 0 0.2-0.1 0.3-0.1 0.1-0.4 0.2-0.7 0.6 0.1 0.3-0.4 0.7-1-0.4-0.7 0.1-0.2 0.7-0.7 0.8 0 0.4-0.4 0.4-0.1 0.7 0.2 1.4 0.2 0.4-0.6 0.7-0.4 1.5 0.4 1-0.3 0.9-0.7 0.5-0.2-0.5-0.2 0.2-0.5-0.2 0.1 0.7-0.5 0.8-0.9-0.6 0-0.3 0.3-0.6 0.4-0.2-0.6-0.1-0.5 0.2-0.2 0.4-0.5-0.1 0.1-0.6-0.5 0.2-0.3 0.3-0.2-0.2-0.2 0.2-0.5 0.5-0.1 1-0.2 0.3 0.1 1.1-0.3 0.4-0.4-0.2-0.3-0.7 0-1-0.8-0.2-0.2 0.1-0.2 0.1-0.1 0.7-1.1 0.4-0.2 0.2 0 0.3 0.5 0.9 0.1 0.4-1.8-0.2 0.1-0.4-0.5-1.3-0.6-0.8-0.4-0.9 0.3-1.2 0-0.4-0.6-0.8 1.1-1.3 0.6-0.9 0.2-1.6-0.3-1.3 0-0.5-0.7-1.1-0.6-0.4-1.3-0.3-1.2 0 0.3-0.6 0.1-1 0.5-1.2-0.5 0.1-0.3 0.5 0 0.9-0.8 1-0.6-0.1-1.1-0.7-0.7-1 0-2-0.3-1.5-0.5-0.1 0.3 1.1 0.1 1.2-0.3 0.3 0.1 1.4 0.9 0.9 0.5 0.8 0.9 0.3 0.3-0.3 0.9 0.6 1.1-0.1 0.8 0.3 0.3 0.4 1.3 1.7-0.7 1.1-2.3 1.6-0.6 0.2-1-1 0.1-0.6-0.5-0.1 0.2 0.9 0.9 0.8-0.4 1-0.9 2.2-0.6 1.4-1.2 1.1-0.3 0.6-0.9 0.5-1.7 1.5-0.6 0.8-0.6 0.3-1-0.1-0.3 0.6-1.7 0.7-3.2 0.6-2.2 0.7 0-0.1 0-0.4-0.6-0.5 0-0.4 0.2-0.6 0-0.5 0.1-0.1-0.2-0.5 0.1-0.2 0-0.1-0.6-0.2 0.2-0.1-0.2-0.2 0-0.5-0.2-0.1-0.4-0.1-0.8-0.1-0.3 0-0.3 0.1-0.5-0.4-0.4-0.1-0.1 0.1-0.1-0.2-0.2 0-0.2-0.1-0.3-0.1-0.3-0.1 0-0.2-0.4 0.1-0.2-0.1 0-0.1-0.3-0.2 0.1-0.2-0.1-0.4-0.2-0.3-0.3-0.4 0.1-0.3-0.4-0.8 0.5-0.7-0.4-0.4-0.1-0.2 0-0.4-0.2 0-0.1 0-0.5-0.1-0.8-0.3-0.2-0.2-0.2 0.7-0.1 0.6-0.1 0-0.6 0.3-0.5-0.1-0.1 0.1-0.1 0-0.4 0.6-0.1 0.1 0.1 0.1 0.1 0.2 0.1 0.1-0.1 0.6-0.5 0-1.3-0.1-0.2-0.6-0.6-0.7 0.2-0.9 0.8-1.5-0.4-0.6 0.1-0.5-0.2-0.4-0.6-0.1-1.1-1.2-1.3 0-1.6-0.4-0.5 0.1-0.2-0.5-0.5-0.1-0.1-0.9-0.3-0.2-1.1 0.3-1 0 0-1.1 0.2-1.1 0.7 0.3 1.2-0.3 0.5-0.6-0.4-0.4 0.7-0.3 0.8 0 1 0.3 0.1-0.9-0.5-0.5-1.2-0.8 0-0.5 0.4-0.8 0-0.8-1-0.6-1.1-0.2-0.6-1.4 0.3-0.3 0.9 0.2 0.1-1.4-0.2-0.7-0.5-0.2-0.3-0.7-1.3-0.2-0.9 0.3-0.6-0.1-0.1-0.5-0.4-0.2 0.1-1.7-0.5-0.5-1.1-0.5-0.8-0.6-1.9-0.4-0.7-1.1-1.1-0.5 0.2-0.9 0.3-0.6 0-1 0.4 0.1 0.1-0.7 0.3-0.5-0.8-0.5 0.1-0.4 0.6-0.1 0.3-0.4 0.5 0.3 0.3-0.4 0.5 0.1 0.6-0.5-0.1-0.6-0.6 0.5-0.4-0.7-1 0.1-1.3-0.3-0.6 0.6-0.3-0.5-0.6-0.1-0.8 0.2-1.4-0.6-0.5 0.4-1.3 0.1-0.4-0.7-0.7 0.1-0.4-0.8-0.7-0.7 0.1-0.5-0.6-0.4-0.6 0.1-1.4-0.7 0.2-0.5-0.4-0.4-1.5-0.1-0.8 0.3-0.2 0.2-0.8 0-0.4-0.5-0.6-0.3 0-0.5-0.6-0.6-0.6 0.1-0.2-2.2 0.2-0.5 0.7-0.7 0.3-0.8-0.1-1 0.8-0.4-0.5-0.9-0.4 0-0.1-1.3 0.4-0.7 0.9 0.1 0.8 0.5 2.3-1 0.6 0-0.3-0.9-0.6-1 0-0.3 0.8-0.6 0.9 0.1 0 0.3 0.8-0.1 1 0.1 0.4 0.5-0.2 0.8 0.3 0.6-0.4 0.9 1 0 0.7 0.5 0.5 0.1 0.1 0.6 0.6 0 0.9-0.1 0.1 0.3 0.5 0.3 0.3-0.2-0.3-0.5 0.7-0.5 0.7-0.1 0.1-1.5 0.3-0.3-0.3-0.6 0.7-0.9 0-0.3 0.7-0.2 1-1.3 1-0.1 1.3 0.2 1.7-1 1.6-0.6 1.7-0.4 0.6 0.1 0.1 0.5 1.5-0.3 0-0.4 0.4-1.2 0.3-0.1 0-1-0.5-0.6 0.1-0.5 0.5 0.1 0.7-0.3 0.4-0.7 0.5 0-0.1-0.6 0.5-0.5 0.8 0.4 0.1 0.4 0.5 0.3 0.5-0.6 1.1 0.3 0.9 0.5 0.6 0.6 1.3 0.5 1.2 0.2 0.5-0.8-0.4-0.2-0.6-0.7 0.1-0.5 1.4 0.3 0.2 0.4 0.8-0.4-0.1 0.9 0.7 0 0.3-0.4-0.2-0.5-0.1-1.3 0.4 0 0.2 0.8 0.7-0.5-0.2-1.3 0.2-0.7-0.9-0.4 0.3-0.4-0.6-0.4-0.4-0.8 0.3-0.5 0.8 0.3 1.6 0-0.4 0.8 0.6 0.3 0.5-0.5 0.9 0.3 1.3 0.7 0.6-0.5-0.5-0.3 0.2-0.4 0.6 0.2 0.8-0.3 0.2-0.7-0.4-0.2 0.4-0.9-0.5-0.1 0.2-1 0.7 0.4 0.5 0.5 0.8 0 0-0.6 0.3-0.5 0.7-0.2-0.5-0.5-0.2-0.4 1.3-0.1 0.4 0.3 1.3 0.1 0.2-0.7-0.7-1-0.9-0.1 0.2-1.1 1 0 0.6-0.6 0.2-0.7 0.4 0.1 0.8-0.5 0.2-0.9 1-1.5 0-0.5-0.3-0.3 0-0.7 0.8-1-0.5-0.7 0.1-0.8-0.2-1.4 0.4-0.4 0.4 0.5 0.6 0.3 0.5-0.3 0.6-0.1 0.1-0.5 0.5-0.4-0.2-0.6 0.3-1.5-0.7-0.5 0.3-0.3 0.1-1-1.7-0.5-0.6-0.8 0.9 0.1 0.4-0.4 0.9-2 0.4-0.4 1.5-0.8 0.2-0.4-0.1-0.9-0.3-0.3-1.5-1.5-0.1-0.4-1-1.3-0.8-0.5-1.2-0.6-0.5-0.7-0.1-1.6 0.5-2 1.1 0.5 0.1-0.3-0.3-0.7 0.8-0.5 0.2-0.8-0.2-0.6-0.6-0.1-1.3-1.1 0.2-1-0.6-0.2-0.1-0.5 0.6-1.6 0.7 0.4 0.4-0.3 0.2-0.6 0.9-0.1-0.1-0.3 0.2-0.8 0.9-0.1 0-0.4 0.6-0.5 0.9-0.1 0.7 0.7 0.1 0.4 0.5 0.3 0.3-0.2 0.4 0.4 1 0.2 0.1-0.3 0-0.4-0.1-0.1-0.1 0-0.2-0.7-0.2-0.1-0.2 0-0.4-0.6 0.1-0.2 0.2 0-0.3-0.3 0.2-0.6 0.2-0.2-0.1 0-0.2-0.1 0.3-0.2 0-0.1-0.1-0.2 0.2-0.5-0.2-0.2 0.2-0.1 0.1 0 0-0.1-0.1-0.2 0.1-0.9 0-0.3-1.9-0.8-0.9-0.8-0.2-0.4-1-0.7-0.1-0.6 0.3-0.5-0.6-0.5 0.7-0.6-0.8-0.4-0.3 0.2-1.4-0.4-0.2-0.4 0.1-0.8-0.3-0.6 0.6 0 0-0.3-0.1-0.2 0.1-0.2 0.1-0.3-0.2-0.6 0.1-0.3 0.1-0.2 0.3-1 0.2-0.4 0.7-0.6 0.3-0.2 0.2-0.2 0.6-0.3 0.2 0.4 0.2 0.2 0.2-0.5 0.6 0 0.2 0.1 0.1-0.1 0-0.2-0.5-0.3 0.5-0.2-0.1-0.5 0-0.2 0-0.2-0.1-0.3 0.5-0.4 0.4 0.6 0.3-0.1 0.2 0-0.1-0.3 0.6-0.5 0.1-0.2 0.6 0.1 0.3-0.1 0.1-0.3 0.4-0.2 0-0.3 0.2-0.1 0.2-0.2 0.1-0.1 0.3-0.2 0.1-0.2 0.1 0.1 0.4-0.5 0.5-0.4 0.2-0.1 0.3-0.1 0.2-0.4 0.6-0.1 0.3-0.1 0.1-0.2 0.2-0.2 0.1-0.5 1-0.8 0.1 0.2 0.1 0 0.1-0.5 0.3-0.1 0-0.2-0.2-0.1-0.3-0.6-0.4 0.2-0.3-0.1-0.4-0.2 0-0.3 0.7-0.7-0.1-0.5-0.2-0.5-0.4 0.1-0.3-0.7-0.7-0.1-0.4-0.7 0.4-0.4 1.1-0.8-0.1-0.6-0.6 0.6-0.6-0.3-0.5 0.2-0.1 0.5-0.9 0.3-0.7-0.8 0-0.1 0.1-0.6 0.3-0.2 0.6-1.2 0.1-0.6 0.5-0.6 0.1-1.7 0.4-0.6 0.2-1.6-0.5-2 0.1-1-1-0.9 0.3-0.6-0.7-1-0.1-1.1-0.8-0.6-0.2-0.7-1.2-0.2-0.6-1.3-0.1-0.6-0.6-0.2 0-0.8 0.5-0.4 0.2-1.7 0-0.6 1.1 0.1 0.5 0.5-0.3 0.3 0.5 0.7 0 0.8 1.4 0.7 0.6 0.1 0.6-0.6 0.9 0 0.6 0.4 1.2-0.3 0.6 0.1 0.1 0 0.5 0.3 0.1 0.4 0.5-0.1 0.2 0.2 0.5 0.1 1.1 0.2 0.6 0.3 0.6-0.2 0.4-0.8 0.8-0.3 0.7-0.8-0.1-0.8 0.6-0.2 1.4-0.4 0.7 0.2 0.6 0.6 0.6 0.2 0.6-0.5 0.8 0.4 0.1 0.7 0.4 0.2 0.6-0.4 0.9 0.4 0.4 0 0.7 0.6 1.2 0.3 0.3 2.1-0.3 0.9 0.1 1.6 0.4-0.1 0.2-0.5 0.4-0.5 1 0.5 0.3 0.7-0.4 0.5 0.5 0.4 0.7 0.1 1.1-0.5 0.5 0.6 0.1 0.5 1 0.2 0.1 0.6 0.4 0.5 0 0.7 0.7 0.9 1.2-0.4 0.5 0.4 1.2-0.4 0.5 0.1 1-0.5 0.8-0.6 0.3 0.4 0.8-0.7 0.7 0.1 0.1 0.6 1.6 0.2 0.3 0.9 1.1 0.1 0.4-0.5 0.4 0 1.1 0.5 1.2 0.4 0.4 0.4 0.4-0.2 0.4 0.3-0.4 0.8-0.7 0.6 1.2 0.2 0.3-0.6 0.9 0.1 0.7 0.4 0.7 0.1 0.6 0.6 0.9-0.4 1.3 0.3z" id="westBengal" name="West Bengal">
    </path>
    <circle class="8.270456422425491|69.64751778317537" cx="139.9" cy="912.7" id="0">
    </circle>
    <circle class="20.400061359468964|84.26020775342162" cx="540" cy="569.2" id="1">
    </circle>
    <circle class="35.5620675307733|95.95035972961863" cx="860.1" cy="97" id="2">
    </circle>
    <circle class="West Bengal" cx="637.1" cy="485.8" id="westBengal">
    </circle>
</svg>